<svg width="20" height="20" viewBox="0 0 20 20" fill="none" xmlns="http://www.w3.org/2000/svg">
<circle cx="10" cy="10" r="10" fill="#F85A00"/>
<path fill-rule="evenodd" clip-rule="evenodd" d="M9.80373 4C10.2308 4 10.5757 4.34493 10.5757 4.77199V7.61359C10.5757 8.04065 10.2308 8.38558 9.80373 8.38558C9.37667 8.38558 9.03174 8.04065 9.03174 7.61359V4.77199C9.03174 4.34493 9.37667 4 9.80373 4Z" fill="white"/>
<path fill-rule="evenodd" clip-rule="evenodd" d="M4.03863 8.18845C4.17004 7.79424 4.5971 7.56429 5.00773 7.69569L7.7015 8.56623C8.09571 8.69764 8.32567 9.1247 8.19426 9.53533C8.06286 9.92954 7.6358 10.1595 7.22516 10.0281L4.5314 9.15755C4.12076 9.02615 3.90723 8.59909 4.03863 8.18845Z" fill="white"/>
<path fill-rule="evenodd" clip-rule="evenodd" d="M6.23947 14.972C5.89454 14.7257 5.82883 14.2493 6.07522 13.9044L7.75061 11.6048C7.99699 11.2599 8.47333 11.1942 8.81826 11.4406C9.16319 11.687 9.22889 12.1633 8.98251 12.5082L7.30712 14.8078C7.06074 15.1527 6.56798 15.2184 6.23947 14.972Z" fill="white"/>
<path fill-rule="evenodd" clip-rule="evenodd" d="M13.3682 14.9721C13.0233 15.2185 12.547 15.1363 12.3006 14.8078L10.6252 12.5083C10.3788 12.1633 10.4609 11.687 10.7894 11.4406C11.1344 11.1942 11.6107 11.2764 11.8571 11.6049L13.5325 13.9044C13.7789 14.2494 13.7132 14.7257 13.3682 14.9721Z" fill="white"/>
<path fill-rule="evenodd" clip-rule="evenodd" d="M15.5692 8.18834C15.7006 8.58255 15.4707 9.02603 15.0765 9.15744L12.3827 10.028C11.9885 10.1594 11.545 9.92943 11.4136 9.53522C11.2822 9.14101 11.5121 8.69752 11.9063 8.56612L14.6001 7.69558C15.0108 7.5806 15.4378 7.79413 15.5692 8.18834Z" fill="white"/>
</svg>
