<svg width="20" height="20" viewBox="0 0 20 20" fill="none" xmlns="http://www.w3.org/2000/svg">
<path fill-rule="evenodd" clip-rule="evenodd" d="M0 10C0 4.475 4.47651 0 9.99817 0C15.5247 0 20 4.475 20 10C20 15.525 15.5247 20 9.99817 20C8.90787 20 7.85967 19.825 6.87797 19.505C7.58877 15.3775 10.1946 12.0113 13.6382 10.5831C13.8495 10.8265 14.1089 11.0211 14.3992 11.154C14.6896 11.2869 15.0042 11.355 15.3221 11.3538C16.5491 11.3538 17.543 10.3581 17.543 9.12875C17.543 7.90062 16.5491 6.905 15.3221 6.905C14.0946 6.905 13.1013 7.8975 13.0982 9.12438C8.70348 10.4462 5.14277 13.5144 3.33618 17.4575C2.76318 16.9461 2.25008 16.3683 1.8072 15.7356C1.91092 11.8956 3.81025 8.54 6.65406 6.5625C6.86493 6.79908 7.12178 6.98785 7.40811 7.11669C7.69445 7.24553 8.00392 7.31159 8.31666 7.31062C9.54484 7.31062 10.5394 6.31187 10.5394 5.08563C10.5394 3.85625 9.54484 2.86125 8.31666 2.86125C7.08725 2.86125 6.09274 3.85625 6.09274 5.08625C6.09274 5.15 6.09701 5.21562 6.10189 5.27688C3.45333 6.20625 1.27883 8.045 0.00671141 10.3875C0.000610128 10.2613 0 10.1294 0 10Z" fill="#F85A00"/>
</svg>
