<svg width="190" height="40" viewBox="0 0 190 40" fill="none" xmlns="http://www.w3.org/2000/svg">
<path fill-rule="evenodd" clip-rule="evenodd" d="M52.8954 19.3383L26.4478 9.1174V0L52.8954 12.2108V19.3383Z" fill="#293044"/>
<path fill-rule="evenodd" clip-rule="evenodd" d="M26.4478 14.3093L52.8954 23.5172V29.7402L26.4478 25.9955V14.3093Z" fill="#293044"/>
<path fill-rule="evenodd" clip-rule="evenodd" d="M26.4478 30.0116L52.8954 34.1361V39.5812H26.4478V30.0116Z" fill="#293044"/>
<path fill-rule="evenodd" clip-rule="evenodd" d="M21.5091 26.0136L0 29.6316V24.5483L21.5091 14.5807V26.0136Z" fill="#F85A00"/>
<path fill-rule="evenodd" clip-rule="evenodd" d="M0 34.1542L21.5091 30.4095V39.5812H0V34.1542Z" fill="#293044"/>
<path fill-rule="evenodd" clip-rule="evenodd" d="M21.5091 9.49743L0 20.2068V15.0149L21.5091 1.01318V9.49743Z" fill="#293044"/>
<path fill-rule="evenodd" clip-rule="evenodd" d="M75.4356 36.7411L75.9964 36.9039C75.8878 37.4104 75.6707 37.8084 75.3632 38.0797C75.0557 38.3511 74.6758 38.4958 74.2416 38.4958C73.7894 38.4958 73.4095 38.3873 73.12 38.1702C72.8306 37.9712 72.6135 37.6637 72.4688 37.2657C72.3241 36.8677 72.2517 36.4516 72.2517 35.9994C72.2517 35.4929 72.3241 35.0587 72.505 34.6969C72.6678 34.3351 72.903 34.0457 73.2105 33.8648C73.5361 33.6658 73.8798 33.5753 74.2416 33.5753C74.6758 33.5753 75.0376 33.6839 75.327 33.9371C75.6165 34.1723 75.8155 34.516 75.924 34.9502L75.3813 35.0949C75.2728 34.7512 75.128 34.4979 74.9471 34.3532C74.7662 34.1904 74.5311 34.0999 74.2416 34.0999C73.916 34.0999 73.6446 34.1904 73.4276 34.3713C73.2105 34.5522 73.0477 34.7874 72.9572 35.0768C72.8668 35.3662 72.8306 35.6738 72.8306 35.9994C72.8306 36.3974 72.8849 36.7411 72.9753 37.0486C73.0839 37.3561 73.2467 37.5732 73.4818 37.736C73.6989 37.8808 73.9341 37.9531 74.1873 37.9531C74.513 37.9531 74.7662 37.8446 74.9833 37.6456C75.2004 37.4466 75.3632 37.1391 75.4356 36.7411ZM81.4776 38.4054V34.2085H80.0666V33.6477H83.4314V34.2085H82.0384V38.4054H81.4776ZM87.9177 38.4054V33.6477H89.5096C89.7991 33.6477 90.0162 33.6658 90.1609 33.7019C90.378 33.7381 90.5408 33.8105 90.6855 33.919C90.8302 34.0276 90.9388 34.1723 91.0292 34.3713C91.1197 34.5703 91.1558 34.7874 91.1558 35.0225C91.1558 35.4205 91.0473 35.7642 90.8121 36.0537C90.577 36.325 90.1609 36.4697 89.5639 36.4697H88.4785V38.4054H87.9177ZM88.4785 35.9089H89.5639C89.9438 35.9089 90.1971 35.8366 90.3418 35.6919C90.5046 35.529 90.577 35.312 90.577 35.0406C90.577 34.8416 90.5408 34.6788 90.4503 34.5341C90.3599 34.3894 90.2332 34.2989 90.0885 34.2447C89.9981 34.2266 89.8172 34.2085 89.5639 34.2085H88.4785V35.9089ZM95.4613 36.0898C95.4613 35.312 95.6603 34.6788 96.0221 34.2447C96.402 33.7924 96.8904 33.5753 97.5055 33.5753C97.8853 33.5753 98.2471 33.6839 98.5547 33.8828C98.8803 34.0999 99.1155 34.3894 99.2783 34.7693C99.4411 35.1311 99.5315 35.5652 99.5315 36.0356C99.5315 36.524 99.4411 36.9582 99.2602 37.3381C99.0974 37.7179 98.8441 38.0074 98.5366 38.1883C98.211 38.3873 97.8673 38.4958 97.4874 38.4958C97.0894 38.4958 96.7457 38.3873 96.42 38.1702C96.1125 37.9531 95.8593 37.6456 95.6964 37.2838C95.5336 36.9039 95.4613 36.5059 95.4613 36.0898ZM96.0402 36.1079C96.0402 36.6687 96.1849 37.121 96.4562 37.4647C96.7276 37.7903 97.0713 37.9531 97.4874 37.9531C97.9215 37.9531 98.2652 37.7903 98.5366 37.4466C98.8079 37.121 98.9527 36.6506 98.9527 36.0356C98.9527 35.6557 98.8803 35.312 98.7718 35.0225C98.6632 34.7331 98.4823 34.516 98.2652 34.3532C98.0301 34.1904 97.7768 34.118 97.5055 34.118C97.1075 34.118 96.7638 34.2627 96.4743 34.5703C96.1849 34.8778 96.0402 35.3843 96.0402 36.1079ZM104.163 33.6477H104.669V37.4285L106.93 33.6477H107.491V38.4054H106.985V34.6426L104.723 38.4054H104.163V33.6477ZM112.303 38.4054V33.6477H113.135L114.148 37.0124C114.239 37.3381 114.311 37.5732 114.347 37.7179C114.402 37.5551 114.474 37.3019 114.582 36.9582L115.596 33.6477H116.355V38.4054H115.813V34.4256L114.564 38.4054H114.058L112.828 34.3532V38.4054H112.303ZM126.124 33.6477H128.892V34.2085H126.685V35.6738H127.698C128.078 35.6738 128.367 35.7099 128.602 35.8004C128.819 35.8728 129 36.0356 129.127 36.2526C129.272 36.4697 129.326 36.723 129.326 37.0305C129.326 37.2657 129.29 37.4828 129.181 37.6999C129.091 37.9169 128.946 38.0797 128.765 38.2064C128.566 38.3511 128.24 38.4054 127.788 38.4054H126.124V33.6477ZM126.685 37.8627H127.806C128.114 37.8627 128.349 37.8084 128.494 37.6637C128.638 37.519 128.729 37.32 128.729 37.0486C128.729 36.8496 128.675 36.6868 128.584 36.5421C128.512 36.4155 128.385 36.325 128.222 36.2888C128.078 36.2526 127.806 36.2165 127.445 36.2165H126.685V37.8627ZM133.324 33.6477H133.885L135.278 36.5783L136.49 33.6477H137.05L135.458 37.3561C135.259 37.8084 135.097 38.1159 134.97 38.2606C134.843 38.4054 134.644 38.4777 134.409 38.4777C134.264 38.4777 134.102 38.4415 133.885 38.3692V37.8265C134.029 37.9169 134.192 37.9712 134.355 37.9712C134.5 37.9712 134.608 37.9169 134.717 37.8265C134.807 37.7179 134.916 37.5009 135.042 37.1572L133.324 33.6477ZM141.537 33.6477H144.124V37.8446H144.503V39.527H144.015V38.4054H141.193V39.527H140.686V37.8446H141.012C141.374 37.2657 141.537 36.1079 141.537 34.3532V33.6477ZM143.563 34.2085H142.079V34.4436C142.079 34.8597 142.043 35.4205 141.971 36.1079C141.917 36.8134 141.79 37.3923 141.591 37.8446H143.563V34.2085ZM148.7 33.6477H149.261L150.654 36.5783L151.866 33.6477H152.427L150.835 37.3561C150.636 37.8084 150.473 38.1159 150.347 38.2606C150.22 38.4054 150.039 38.4777 149.804 38.4777C149.659 38.4777 149.478 38.4415 149.261 38.3692V37.8265C149.406 37.9169 149.569 37.9712 149.75 37.9712C149.876 37.9712 150.003 37.9169 150.093 37.8265C150.202 37.7179 150.31 37.5009 150.419 37.1572L148.7 33.6477ZM156.805 33.6477H157.384V37.8446H158.777V33.6477H159.355V37.8446H160.748V33.6477H161.327V37.8446H161.707V39.7259H161.201V38.4054H156.805V33.6477ZM166.266 38.4054V33.6477H169.341V34.2085H166.845V35.6738H169.178V36.2346H166.845V37.8446H169.45V38.4054H166.266ZM174.135 38.4054V33.6477H177.192V34.2085H174.696V35.6738H177.029V36.2346H174.696V37.8446H177.301V38.4054H174.135Z" fill="#293044"/>
<path fill-rule="evenodd" clip-rule="evenodd" d="M72.0889 11.9034H61.5605C60.7826 11.9034 60.3123 12.211 60.059 12.4461C59.6068 12.9165 59.5525 13.5315 59.5525 14.0381V24.5303C59.5525 24.9464 59.5887 25.471 59.9505 25.8871C60.2218 26.1946 60.6741 26.466 61.4339 26.466H69.502C70.9673 26.466 71.7271 25.869 72.0527 25.5072C72.4688 25.0368 72.8668 24.1142 72.8668 22.251C72.8668 20.8942 72.6497 19.7907 72.0889 19.0852C71.3291 18.1264 70.1895 17.9998 69.4478 17.9998H62.3565V14.9968C62.3565 14.7979 62.3565 14.4541 62.5735 14.2552C62.7544 14.1104 63.0801 14.0923 63.3514 14.0923H72.0889V11.9034ZM62.3565 20.1887H68.0367C68.5071 20.1887 69.086 20.2068 69.502 20.5867C69.9362 21.0028 69.9543 21.6178 69.9543 22.1605C69.9543 22.5947 69.9905 23.4087 69.5201 23.861C69.086 24.2771 68.5613 24.2771 68.0367 24.2771H63.5323C63.2067 24.2771 62.6821 24.3132 62.465 24.0238C62.4288 23.9514 62.3565 23.8248 62.3565 23.2097V20.1887Z" fill="#293044"/>
<path fill-rule="evenodd" clip-rule="evenodd" d="M73.5 26.4658H76.0507L79.524 17.9634C79.5783 17.8549 79.6325 17.6559 79.7411 17.6559C79.8496 17.6559 79.9039 17.8549 79.9582 17.9634L83.4314 26.4658H85.9822L81.4054 16.2449C81.0978 15.5936 80.4285 15.3223 79.7411 15.3223C79.0537 15.3223 78.3843 15.5936 78.0768 16.2449L73.5 26.4658Z" fill="#293044"/>
<path fill-rule="evenodd" clip-rule="evenodd" d="M91.6985 15.3223C90.3599 15.3223 88.37 15.3584 87.1398 16.48C85.8373 17.674 85.6926 19.7543 85.6926 21.0025C85.6926 22.1241 85.8012 24.2045 87.1398 25.4165C88.37 26.52 90.3599 26.5924 91.6985 26.5924C93.001 26.5924 95.0452 26.52 96.2572 25.4165C97.0894 24.6387 97.7044 23.2457 97.7044 20.9121C97.7044 19.7543 97.5597 17.674 96.2572 16.48C95.009 15.3584 93.0372 15.3223 91.6985 15.3223ZM88.2614 20.9845C88.2614 20.2789 88.2614 18.8498 88.9669 18.072C89.6724 17.276 90.8845 17.1855 91.6985 17.1855C92.5849 17.1855 93.6703 17.276 94.394 18.072C95.1899 18.9222 95.1176 20.1704 95.1176 20.9845C95.1176 21.9432 95.1176 22.9925 94.3759 23.8065C93.6342 24.6206 92.6392 24.7291 91.6985 24.7291C90.794 24.7291 89.7086 24.6206 88.985 23.8065C88.2795 23.0105 88.2614 21.889 88.2614 20.9845Z" fill="#293044"/>
<path fill-rule="evenodd" clip-rule="evenodd" d="M101.594 26.4658V15.449H99.1155V26.4658H101.594ZM109.843 26.4658L105.031 21.5634C104.868 21.4006 104.633 21.0207 104.633 20.7855C104.633 20.4418 104.959 20.08 105.158 19.8991L109.445 15.449H106.478L102.878 19.3564C102.553 19.7182 102.1 20.2248 102.1 20.7855C102.1 21.3463 102.48 21.8167 102.733 22.088L106.84 26.4658H109.843Z" fill="#293044"/>
<path fill-rule="evenodd" clip-rule="evenodd" d="M125.726 15.1776C125.78 15.0148 125.925 14.6892 126.088 14.6892C126.16 14.6892 126.341 14.7434 126.341 15.1414L126.251 26.4658H129.073V13.658C129.073 12.3194 128.042 11.7405 126.649 11.7405C125.563 11.7405 124.677 11.9937 124.044 13.6218L120.172 23.3362C120.046 23.6437 119.901 23.8608 119.774 23.8608C119.648 23.8608 119.503 23.6437 119.376 23.3362L115.505 13.6218C114.872 11.9937 113.986 11.7405 112.9 11.7405C112.466 11.7405 110.494 11.7586 110.494 13.658V26.4658H113.298L113.226 15.1414C113.226 15.0691 113.226 14.6892 113.461 14.6892C113.588 14.6892 113.768 15.0148 113.823 15.1776L117.64 24.892C118.182 26.2668 118.617 26.6286 119.774 26.6286C121.004 26.6286 121.402 26.1944 121.909 24.892L125.726 15.1776Z" fill="#293044"/>
<path fill-rule="evenodd" clip-rule="evenodd" d="M136.906 15.3223C135.567 15.3223 133.577 15.3584 132.347 16.48C131.044 17.674 130.9 19.7543 130.9 21.0025C130.9 22.1241 131.008 24.2045 132.347 25.4165C133.577 26.52 135.567 26.5924 136.906 26.5924C138.208 26.5924 140.252 26.52 141.464 25.4165C142.296 24.6387 142.911 23.2457 142.911 20.9121C142.911 19.7543 142.767 17.674 141.464 16.48C140.234 15.3584 138.244 15.3223 136.906 15.3223ZM133.468 20.9845C133.468 20.2789 133.468 18.8498 134.174 18.072C134.879 17.276 136.092 17.1855 136.906 17.1855C137.792 17.1855 138.877 17.276 139.601 18.072C140.397 18.9222 140.343 20.1704 140.343 20.9845C140.343 21.9432 140.343 22.9925 139.583 23.8065C138.841 24.6206 137.846 24.7291 136.906 24.7291C136.001 24.7291 134.916 24.6206 134.192 23.8065C133.487 23.0105 133.468 21.889 133.468 20.9845Z" fill="#293044"/>
<path fill-rule="evenodd" clip-rule="evenodd" d="M144.268 24.6025H143.255V26.4658H155.972V24.6025H154.977L151.432 16.4077C151.197 15.865 150.817 15.3223 149.623 15.3223C148.465 15.3223 148.049 15.7926 147.796 16.4077L144.268 24.6025ZM149.388 17.7463C149.424 17.6378 149.532 17.4569 149.623 17.4569C149.749 17.4569 149.786 17.6559 149.84 17.7463L152.535 24.6025H146.71L149.388 17.7463Z" fill="#293044"/>
<path fill-rule="evenodd" clip-rule="evenodd" d="M168.129 15.449H165.596L161.779 23.8066L158.179 15.449H155.538L160.567 26.4297L158.849 30.0115H161.381L168.129 15.449Z" fill="#293044"/>
<path fill-rule="evenodd" clip-rule="evenodd" d="M166.429 26.4658H168.998L172.471 17.9634C172.507 17.8549 172.561 17.6559 172.67 17.6559C172.778 17.6559 172.851 17.8549 172.887 17.9634L176.36 26.4658H178.911L174.334 16.2449C174.045 15.5936 173.357 15.3223 172.67 15.3223C172 15.3223 171.313 15.5936 171.005 16.2449L166.429 26.4658Z" fill="#293044"/>
<path fill-rule="evenodd" clip-rule="evenodd" d="M179.562 15.449V24.7835C179.562 25.2176 179.562 25.688 179.978 26.0678C180.394 26.4477 180.864 26.4658 181.244 26.4658H186.979C187.666 26.4658 188.499 26.4477 189.15 25.8869C189.946 25.1814 190 23.897 190 23.1553C190 22.287 189.928 21.2197 189.258 20.4599C188.625 19.7725 187.847 19.6278 187.142 19.6278H182.058V15.449H179.562ZM182.058 21.4911H186.093C186.382 21.4911 186.816 21.5272 187.124 21.8529C187.431 22.1785 187.413 22.7031 187.413 23.0106C187.413 23.4086 187.395 23.9332 187.124 24.2408C186.816 24.5845 186.382 24.6026 186.02 24.6026H182.746C182.565 24.6026 182.348 24.5845 182.203 24.4397C182.022 24.2588 182.058 23.9875 182.058 23.8247V21.4911Z" fill="#293044"/>
</svg>
