<svg width="20" height="20" viewBox="0 0 20 20" fill="none" xmlns="http://www.w3.org/2000/svg">
<path d="M9.99998 0C4.47754 0 0 4.47755 0 10C0 15.5224 4.47754 20 9.99998 20C15.5224 20 19.9999 15.5223 19.9999 10C19.9999 4.47755 15.5224 0 9.99998 0ZM15.2806 14.5911L14.4799 15.392C14.337 15.5347 13.9184 15.6238 13.905 15.6238C11.372 15.6459 8.93311 14.6509 7.14115 12.8588C5.34429 11.0609 4.34819 8.61331 4.37494 6.07178C4.37494 6.07062 4.46662 5.66404 4.60944 5.52258L5.41008 4.72181C5.70306 4.42747 6.26587 4.29445 6.66013 4.42635L6.82855 4.48254C7.22165 4.61431 7.63438 5.04897 7.74299 5.44941L8.14574 6.92761C8.25435 7.32921 8.10786 7.90055 7.81496 8.19353L7.28035 8.72823C7.80523 10.6714 9.32988 12.1963 11.2734 12.7225L11.8078 12.1877C12.1021 11.8933 12.6732 11.7469 13.074 11.8554L14.552 12.2596C14.9525 12.3696 15.3871 12.7798 15.5188 13.1728L15.575 13.3436C15.7056 13.7368 15.5736 14.2994 15.2806 14.5911Z" fill="#F85A00"/>
</svg>
