<svg width="20" height="20" viewBox="0 0 20 20" fill="none" xmlns="http://www.w3.org/2000/svg">
<circle cx="10" cy="10" r="10" fill="white"/>
<path fill-rule="evenodd" clip-rule="evenodd" d="M13.8691 0.782128C12.098 1.17319 10.7628 2.7933 10.7628 4.7486C10.7628 4.80447 10.7628 4.8324 10.7628 4.88827C13.5693 5.50279 14.959 7.45811 14.959 10.0279C14.959 12.905 12.6702 15.2514 9.89091 15.2514C7.0844 15.2514 4.49586 12.8492 4.49586 9.27375C4.49586 4.9162 8.11981 0.837989 13.2696 0.698324C13.3514 0.698324 13.5148 0.698324 13.6511 0.698324C12.5067 0.251397 11.2805 0 9.9999 0C4.46862 0 0 4.46928 0 10C0 15.5307 4.49587 20 9.9999 20C15.5312 20 19.9998 15.5307 19.9998 10C20.027 5.86593 17.493 2.29051 13.8691 0.782128Z" fill="#F85A00"/>
</svg>
