<svg width="30" height="30" viewBox="0 0 30 30" fill="none" xmlns="http://www.w3.org/2000/svg">
<circle cx="15" cy="15" r="15" fill="#F85A00"/>
<path d="M13.8964 20.8901C16.4723 18.3285 18.4872 16.2808 20.7285 14.0826C21.4684 13.3098 21.9371 12.5534 22.1344 11.8135C22.4797 10.4172 21.9488 9.208 21.0245 8.26178C20.1365 7.37386 19.187 6.95456 18.1757 7.0039C17.1645 7.05323 16.1656 7.56297 15.179 8.53311L8.88944 14.8472L9.92537 15.8585L16.2149 9.56901C16.8602 8.95542 17.6282 8.37695 18.5087 8.4591C19.8501 8.64742 21.0348 10.2893 20.7285 11.4435C20.3401 12.4676 19.8047 12.9346 19.0637 13.6757C16.8094 15.9242 15.0517 17.6629 12.8605 19.8541C12.037 20.6066 11.5044 20.8104 10.7393 20.1008C10.3447 19.7062 10.1721 19.3197 10.2214 18.9416C10.2761 18.5003 10.5259 18.1951 10.8133 17.9056L16.5602 12.1588C16.8227 11.8958 17.4206 11.391 17.6701 11.6162C17.8615 12.0602 17.3686 12.484 17.1275 12.7261L11.8492 18.0043L12.8605 19.0402L18.1634 13.762C19.0767 12.8199 19.7329 11.6688 18.706 10.6049C17.5702 9.63008 16.3737 10.2809 15.5242 11.1229L9.77739 16.8697C9.18545 17.4617 8.84835 18.103 8.76615 18.7936C8.7013 19.7618 9.13782 20.5389 9.72807 21.1367C10.2829 21.6885 10.8823 21.9942 11.6273 22C12.523 21.9641 13.4037 21.3742 13.8964 20.8901Z" fill="white"/>
</svg>
