<svg width="43" height="41" viewBox="0 0 43 41" fill="none" xmlns="http://www.w3.org/2000/svg">
<path d="M29.3552 27.585C22.2964 27.585 16.552 21.909 16.552 14.9208C16.552 7.93251 22.2964 2.25657 29.3552 2.25657C36.4141 2.25657 42.1474 7.93251 42.1474 14.9208C42.1473 21.909 36.4141 27.585 29.3552 27.585ZM29.3552 26.0996C35.6004 26.0995 40.647 21.1034 40.647 14.9208C40.647 8.73803 35.6004 3.742 29.3552 3.74195C23.11 3.74195 18.0635 8.73803 18.0635 14.9208C18.0635 21.1034 23.1101 26.0996 29.3552 26.0996Z" fill="#F85A00"/>
<path d="M29.3553 24.614C23.9595 24.614 19.564 20.2624 19.564 14.9206C19.564 9.57868 23.9595 5.22712 29.3553 5.22712C34.7512 5.22712 39.1356 9.57868 39.1356 14.9206C39.1355 20.2624 34.7511 24.614 29.3553 24.614ZM29.3553 23.1176C33.9375 23.1176 37.6352 19.4569 37.6352 14.9206C37.6352 10.3842 33.9375 6.7235 29.3553 6.7235C24.7732 6.7235 21.0755 10.3842 21.0755 14.9206C21.0755 19.4569 24.7732 23.1176 29.3553 23.1176Z" fill="#F85A00"/>
<path d="M14.6738 31.689C13.4357 31.689 12.4177 30.6811 12.4177 29.4554V27.2218C12.4177 25.9961 13.4357 24.9773 14.6738 24.9773H16.93C18.1681 24.9773 19.1861 25.9961 19.1861 27.2218V29.4554C19.1861 30.6811 18.1681 31.689 16.93 31.689H14.6738ZM14.6738 30.2036H16.93C17.36 30.2036 17.6857 29.8813 17.6857 29.4554V27.2218C17.6857 26.796 17.3601 26.4736 16.93 26.4736H14.6738C14.2438 26.4736 13.9181 26.7959 13.9181 27.2218V29.4554C13.9181 29.8813 14.2438 30.2036 14.6738 30.2036Z" fill="#F85A00"/>
<path d="M15.7273 40.9999C8.94423 40.9604 3.36155 35.6699 3.02412 28.9628C2.68668 22.2557 7.70373 16.4448 14.4492 15.7375C14.6482 15.7156 14.8478 15.7729 15.0041 15.8967C15.1604 16.0205 15.2607 16.2007 15.2828 16.3976C15.3049 16.5946 15.247 16.7922 15.122 16.9469C14.9969 17.1017 14.8149 17.201 14.616 17.2229C8.65007 17.8484 4.22609 22.9649 4.52452 28.8968C4.82292 34.8287 9.73932 39.4789 15.7385 39.5145C21.7376 39.5483 26.7045 34.9568 27.0747 29.0288C27.0746 28.9272 27.0955 28.8267 27.1361 28.7333C27.1767 28.64 27.2362 28.5558 27.3109 28.486C27.3856 28.4163 27.4738 28.3624 27.5703 28.3277C27.6668 28.2929 27.7695 28.2781 27.872 28.2841C27.9745 28.2901 28.0746 28.3168 28.1663 28.3626C28.258 28.4083 28.3393 28.4721 28.4051 28.5501C28.471 28.6281 28.52 28.7186 28.5492 28.816C28.5784 28.9134 28.5872 29.0158 28.575 29.1168C28.1565 35.8194 22.5105 41.04 15.7274 40.9998L15.7273 40.9999Z" fill="#F85A00"/>
<path d="M15.5161 38.0182C10.3347 37.8683 6.16488 33.7297 6.02486 28.5998C5.88482 23.4699 9.82812 19.113 14.9938 18.6863C15.0935 18.676 15.1943 18.6856 15.2903 18.7144C15.3863 18.7433 15.4755 18.7908 15.5526 18.8542C15.6298 18.9176 15.6933 18.9956 15.7396 19.0837C15.7859 19.1718 15.8139 19.2682 15.8221 19.3671C15.8302 19.4661 15.8183 19.5656 15.787 19.66C15.7558 19.7543 15.7058 19.8415 15.64 19.9165C15.5743 19.9914 15.494 20.0526 15.404 20.0964C15.314 20.1402 15.2161 20.1658 15.116 20.1717C10.7313 20.5339 7.40635 24.2015 7.52521 28.5558C7.64408 32.9102 11.1625 36.4056 15.5606 36.5328C19.9586 36.6601 23.6761 33.38 24.0516 29.0399C24.0576 28.9409 24.0835 28.844 24.1278 28.755C24.1721 28.6659 24.2339 28.5866 24.3096 28.5215C24.3853 28.4564 24.4733 28.407 24.5686 28.3761C24.6639 28.3451 24.7644 28.3334 24.8643 28.3414C24.9642 28.3495 25.0615 28.3773 25.1504 28.4231C25.2394 28.4689 25.3182 28.5317 25.3822 28.6081C25.4463 28.6844 25.4943 28.7726 25.5235 28.8676C25.5526 28.9625 25.5623 29.0623 25.552 29.161C25.1096 34.2741 20.6975 38.1682 15.5161 38.0183L15.5161 38.0182Z" fill="#F85A00"/>
<path d="M26.0387 16.503C25.1632 15.6362 25.1632 14.211 26.0387 13.3443L27.7597 11.6405C28.6352 10.7738 30.0749 10.7737 30.9504 11.6405L32.6714 13.3443C33.547 14.2111 33.547 15.6363 32.6715 16.503L30.9504 18.2069C30.0749 19.0736 28.6353 19.0736 27.7597 18.2069L26.0387 16.503ZM27.0996 15.4528L28.8207 17.1566C29.1248 17.4574 29.5775 17.4501 29.8816 17.151L31.6027 15.4471C31.9068 15.1463 31.9146 14.6978 31.6107 14.3967L29.8896 12.6929C29.5855 12.3921 29.1249 12.3921 28.8208 12.6929L27.0997 14.3967C26.7956 14.6976 26.7956 15.1538 27.0997 15.4549L27.0996 15.4528Z" fill="#F85A00"/>
<path d="M4.50541 4.46276C4.40623 4.46395 4.30828 4.48456 4.21716 4.52336C4.12604 4.56215 4.04353 4.6184 3.97443 4.68885C3.90533 4.7593 3.85099 4.84252 3.8145 4.93383C3.77802 5.02515 3.76012 5.12269 3.76183 5.22087C3.76187 7.67278 5.79103 9.68167 8.26769 9.68167C8.3668 9.68167 8.46494 9.6624 8.5565 9.62485C8.64807 9.5873 8.73128 9.53217 8.80136 9.46279C8.87144 9.39341 8.927 9.3112 8.96492 9.22056C9.00285 9.12991 9.02237 9.03266 9.02237 8.93455C9.02237 8.83643 9.00285 8.73935 8.96492 8.64871C8.927 8.55806 8.87144 8.47568 8.80136 8.4063C8.73128 8.33692 8.64807 8.28179 8.5565 8.24424C8.46494 8.20669 8.3668 8.18742 8.26769 8.18742C6.60469 8.18742 5.27121 6.86727 5.27118 5.22087C5.27294 5.12084 5.25434 5.02145 5.21647 4.92868C5.17861 4.83592 5.12224 4.7517 5.05078 4.68096C4.97932 4.61021 4.89421 4.55449 4.80051 4.51701C4.70681 4.47952 4.60646 4.46103 4.50541 4.46276Z" fill="#F85A00"/>
<path d="M4.50599 4.463C4.40681 4.4642 4.30886 4.48481 4.21774 4.5236C4.12662 4.5624 4.04411 4.61865 3.97501 4.6891C3.90592 4.75955 3.85157 4.84277 3.81509 4.93408C3.7786 5.02539 3.7607 5.12294 3.76241 5.22112C3.76239 6.86752 2.42891 8.18766 0.765906 8.18766C0.666799 8.18766 0.568657 8.20694 0.477094 8.24448C0.38553 8.28203 0.30232 8.33717 0.23224 8.40655C0.162161 8.47592 0.106599 8.5583 0.0686722 8.64895C0.0307454 8.7396 0.0112305 8.83667 0.0112305 8.93479C0.0112305 9.03291 0.0307454 9.13015 0.0686722 9.2208C0.106599 9.31145 0.162161 9.39365 0.23224 9.46303C0.30232 9.53241 0.38553 9.58755 0.477094 9.62509C0.568657 9.66264 0.666799 9.68192 0.765906 9.68192C3.24257 9.68192 5.27173 7.67302 5.27177 5.22112C5.27352 5.12108 5.25492 5.02169 5.21706 4.92893C5.17919 4.83616 5.12282 4.75195 5.05136 4.6812C4.9799 4.61045 4.89479 4.55474 4.80109 4.51725C4.70739 4.47976 4.60704 4.46127 4.50599 4.463Z" fill="#F85A00"/>
<path d="M4.49467 13.4132C4.39548 13.412 4.29754 13.3914 4.20642 13.3526C4.1153 13.3138 4.03279 13.2576 3.96369 13.1871C3.89459 13.1167 3.84025 13.0335 3.80376 12.9421C3.76727 12.8508 3.74938 12.7533 3.75109 12.6551C3.75112 10.2032 5.78029 8.1943 8.25695 8.1943C8.35605 8.1943 8.4542 8.21358 8.54576 8.25113C8.63732 8.28868 8.72053 8.34381 8.79061 8.41319C8.86069 8.48257 8.91625 8.56477 8.95418 8.65542C8.99211 8.74607 9.01162 8.84332 9.01162 8.94143C9.01162 9.03955 8.99211 9.13662 8.95418 9.22727C8.91625 9.31792 8.86069 9.4003 8.79061 9.46968C8.72053 9.53905 8.63732 9.59419 8.54576 9.63174C8.4542 9.66928 8.35605 9.68856 8.25695 9.68856C6.59395 9.68856 5.26046 11.0087 5.26044 12.6551C5.26219 12.7551 5.24359 12.8545 5.20573 12.9473C5.16787 13.0401 5.1115 13.1243 5.04004 13.195C4.96858 13.2658 4.88346 13.3215 4.78977 13.359C4.69607 13.3965 4.59571 13.4149 4.49467 13.4132Z" fill="#F85A00"/>
<path d="M4.49476 13.4132C4.39558 13.412 4.29763 13.3914 4.20651 13.3526C4.11539 13.3138 4.03288 13.2576 3.96378 13.1871C3.89469 13.1167 3.84034 13.0335 3.80386 12.9421C3.76737 12.8508 3.74947 12.7533 3.75118 12.6551C3.75116 11.0087 2.41768 9.68856 0.754676 9.68856C0.655569 9.68856 0.557427 9.66928 0.465863 9.63174C0.3743 9.59419 0.291089 9.53905 0.22101 9.46968C0.15093 9.4003 0.0953685 9.31792 0.0574417 9.22727C0.019515 9.13662 0 9.03955 0 8.94143C0 8.84332 0.019515 8.74607 0.0574417 8.65542C0.0953685 8.56477 0.15093 8.48257 0.22101 8.41319C0.291089 8.34381 0.3743 8.28868 0.465863 8.25113C0.557427 8.21358 0.655569 8.1943 0.754676 8.1943C3.23134 8.1943 5.2605 10.2032 5.26054 12.6551C5.26229 12.7551 5.24369 12.8545 5.20582 12.9473C5.16796 13.0401 5.11159 13.1243 5.04013 13.195C4.96867 13.2658 4.88356 13.3215 4.78986 13.359C4.69616 13.3965 4.59581 13.4149 4.49476 13.4132Z" fill="#F85A00"/>
<path d="M12.8082 0.760101C12.9071 0.761628 13.0046 0.782372 13.0954 0.821235C13.1861 0.860099 13.2682 0.916342 13.3371 0.986625C13.4059 1.05691 13.46 1.1398 13.4964 1.2308C13.5328 1.3218 13.5508 1.41913 13.5492 1.517V2.24188C13.5506 2.34063 13.5322 2.4388 13.495 2.53044C13.4578 2.62209 13.4026 2.70538 13.3325 2.77571C13.2625 2.84604 13.179 2.90189 13.087 2.94001C12.995 2.97812 12.8962 2.99787 12.7964 2.99787C12.6967 2.99787 12.5979 2.97812 12.5059 2.94001C12.4138 2.90189 12.3304 2.84604 12.2603 2.77571C12.1903 2.70538 12.1351 2.62209 12.0979 2.53044C12.0607 2.4388 12.0422 2.34063 12.0437 2.24188V1.517C12.0421 1.41717 12.0608 1.31806 12.0986 1.22552C12.1365 1.13299 12.1928 1.04885 12.2641 0.978255C12.3354 0.907659 12.4203 0.851987 12.5138 0.814503C12.6072 0.77702 12.7074 0.758539 12.8082 0.760101Z" fill="#F85A00"/>
<path d="M12.8082 4.48618C12.9071 4.4877 13.0046 4.50845 13.0954 4.54731C13.1861 4.58617 13.2682 4.64242 13.3371 4.7127C13.4059 4.78298 13.46 4.86587 13.4964 4.95687C13.5328 5.04787 13.5508 5.14521 13.5492 5.24307V5.96795C13.5506 6.06671 13.5322 6.16488 13.495 6.25652C13.4578 6.34816 13.4026 6.43145 13.3325 6.50178C13.2625 6.57211 13.179 6.62796 13.087 6.66608C12.995 6.7042 12.8962 6.72394 12.7964 6.72394C12.6967 6.72394 12.5979 6.7042 12.5059 6.66608C12.4138 6.62796 12.3304 6.57211 12.2603 6.50178C12.1903 6.43145 12.1351 6.34816 12.0979 6.25652C12.0607 6.16488 12.0422 6.06671 12.0437 5.96795V5.24307C12.0421 5.14325 12.0608 5.04413 12.0986 4.9516C12.1365 4.85906 12.1928 4.77493 12.2641 4.70433C12.3354 4.63373 12.4203 4.57806 12.5138 4.54058C12.6072 4.50309 12.7074 4.48461 12.8082 4.48618Z" fill="#F85A00"/>
<path d="M9.78427 3.73028C9.78581 3.63242 9.80677 3.53581 9.84602 3.44597C9.88528 3.35614 9.94209 3.27484 10.0131 3.20672C10.0841 3.1386 10.1678 3.08499 10.2597 3.04895C10.3516 3.01291 10.45 2.99514 10.5488 2.99667H11.281C11.3808 2.99528 11.4799 3.01352 11.5725 3.05035C11.6651 3.08717 11.7492 3.14185 11.8202 3.21119C11.8913 3.28053 11.9477 3.36316 11.9862 3.45427C12.0247 3.54538 12.0446 3.64316 12.0446 3.74193C12.0446 3.84069 12.0247 3.93847 11.9862 4.02959C11.9477 4.1207 11.8913 4.20333 11.8202 4.27267C11.7492 4.34201 11.6651 4.39668 11.5725 4.43351C11.4799 4.47033 11.3808 4.48858 11.281 4.48718H10.5488C10.448 4.48874 10.3479 4.47023 10.2544 4.43274C10.1609 4.39526 10.0759 4.33956 10.0046 4.26897C9.93332 4.19837 9.87709 4.11431 9.83922 4.02177C9.80136 3.92923 9.78269 3.83011 9.78427 3.73028Z" fill="#F85A00"/>
<path d="M13.5482 3.73028C13.5497 3.63242 13.5707 3.53581 13.6099 3.44597C13.6492 3.35614 13.706 3.27484 13.777 3.20672C13.848 3.1386 13.9317 3.08499 14.0236 3.04895C14.1156 3.01291 14.2139 2.99514 14.3127 2.99667H15.0449C15.1447 2.99528 15.2438 3.01352 15.3364 3.05035C15.429 3.08717 15.5131 3.14185 15.5842 3.21119C15.6552 3.28053 15.7116 3.36316 15.7501 3.45427C15.7886 3.54538 15.8086 3.64316 15.8086 3.74193C15.8086 3.84069 15.7886 3.93847 15.7501 4.02959C15.7116 4.1207 15.6552 4.20333 15.5842 4.27267C15.5131 4.34201 15.429 4.39668 15.3364 4.43351C15.2438 4.47033 15.1447 4.48858 15.0449 4.48718H14.3127C14.2119 4.48874 14.1118 4.47023 14.0183 4.43274C13.9248 4.39526 13.8399 4.33956 13.7685 4.26897C13.6972 4.19837 13.641 4.11431 13.6031 4.02177C13.5653 3.92923 13.5466 3.83011 13.5482 3.73028Z" fill="#F85A00"/>
<path d="M14.3018 8.96939C14.3018 9.16704 14.3811 9.35656 14.5223 9.49632C14.6635 9.63608 14.8549 9.71465 15.0546 9.71465C15.2542 9.71465 15.4457 9.63608 15.5869 9.49632C15.7281 9.35656 15.8074 9.16704 15.8074 8.96939C15.8074 8.77173 15.7281 8.58222 15.5869 8.44246C15.4457 8.3027 15.2542 8.22412 15.0546 8.22412C14.8549 8.22412 14.6635 8.3027 14.5223 8.44246C14.3811 8.58222 14.3018 8.77173 14.3018 8.96939Z" fill="#F85A00"/>
<path d="M12.054 13.4311C12.054 13.6287 12.1333 13.8182 12.2745 13.958C12.4157 14.0977 12.6071 14.1763 12.8068 14.1763C13.0064 14.1763 13.1979 14.0977 13.3391 13.958C13.4803 13.8182 13.5596 13.6287 13.5596 13.4311C13.5596 13.2334 13.4803 13.0439 13.3391 12.9041C13.1979 12.7644 13.0064 12.6858 12.8068 12.6858C12.6071 12.6858 12.4157 12.7644 12.2745 12.9041C12.1333 13.0439 12.054 13.2334 12.054 13.4311Z" fill="#F85A00"/>
<path d="M34.61 40.9958C34.5112 40.9942 34.4136 40.9735 34.3228 40.9346C34.2321 40.8958 34.15 40.8395 34.0812 40.7692C34.0123 40.699 33.9582 40.6161 33.9218 40.5251C33.8854 40.4341 33.8674 40.3367 33.869 40.2389V39.514C33.8676 39.4152 33.886 39.3171 33.9232 39.2254C33.9604 39.1338 34.0156 39.0505 34.0857 38.9802C34.1557 38.9098 34.2392 38.854 34.3312 38.8159C34.4232 38.7777 34.522 38.758 34.6218 38.758C34.7215 38.758 34.8203 38.7777 34.9123 38.8159C35.0044 38.854 35.0878 38.9098 35.1579 38.9802C35.2279 39.0505 35.2831 39.1338 35.3203 39.2254C35.3575 39.3171 35.376 39.4152 35.3746 39.514V40.2389C35.3761 40.3387 35.3574 40.4378 35.3196 40.5303C35.2817 40.6229 35.2254 40.707 35.1541 40.7776C35.0828 40.8482 34.9979 40.9039 34.9044 40.9414C34.811 40.9788 34.7108 40.9973 34.61 40.9958Z" fill="#F85A00"/>
<path d="M34.61 37.2699C34.5112 37.2684 34.4136 37.2477 34.3228 37.2088C34.2321 37.1699 34.15 37.1137 34.0812 37.0434C34.0123 36.9731 33.9582 36.8902 33.9218 36.7992C33.8854 36.7082 33.8674 36.6109 33.869 36.513V35.7882C33.8676 35.6894 33.886 35.5912 33.9232 35.4996C33.9604 35.4079 34.0156 35.3247 34.0857 35.2543C34.1557 35.184 34.2392 35.1281 34.3312 35.09C34.4232 35.0519 34.522 35.0322 34.6218 35.0322C34.7215 35.0322 34.8203 35.0519 34.9123 35.09C35.0044 35.1281 35.0878 35.184 35.1579 35.2543C35.2279 35.3247 35.2831 35.4079 35.3203 35.4996C35.3575 35.5912 35.376 35.6894 35.3746 35.7882V36.513C35.3761 36.6129 35.3574 36.712 35.3196 36.8045C35.2817 36.897 35.2254 36.9812 35.1541 37.0518C35.0828 37.1224 34.9979 37.178 34.9044 37.2155C34.811 37.253 34.7108 37.2715 34.61 37.2699Z" fill="#F85A00"/>
<path d="M37.6342 38.0256C37.6326 38.1234 37.6117 38.2201 37.5724 38.3099C37.5332 38.3997 37.4764 38.481 37.4054 38.5491C37.3344 38.6173 37.2507 38.6709 37.1587 38.7069C37.0668 38.743 36.9685 38.7607 36.8696 38.7592H36.1374C36.0377 38.7606 35.9385 38.7423 35.846 38.7055C35.7534 38.6687 35.6693 38.614 35.5982 38.5447C35.5272 38.4753 35.4708 38.3927 35.4323 38.3016C35.3938 38.2105 35.3738 38.1127 35.3738 38.0139C35.3738 37.9152 35.3938 37.8174 35.4323 37.7263C35.4708 37.6352 35.5272 37.5525 35.5982 37.4832C35.6693 37.4138 35.7534 37.3592 35.846 37.3224C35.9385 37.2855 36.0377 37.2673 36.1374 37.2687H36.8696C36.9705 37.2671 37.0706 37.2856 37.1641 37.3231C37.2575 37.3606 37.3425 37.4163 37.4138 37.4869C37.4851 37.5575 37.5414 37.6416 37.5792 37.7341C37.6171 37.8266 37.6358 37.9257 37.6342 38.0256Z" fill="#F85A00"/>
<path d="M33.8703 38.0258C33.8687 38.1237 33.8478 38.2203 33.8085 38.3101C33.7693 38.4 33.7124 38.4813 33.6415 38.5494C33.5705 38.6175 33.4867 38.6711 33.3948 38.7072C33.3029 38.7432 33.2046 38.761 33.1057 38.7594H32.3735C32.2738 38.7608 32.1746 38.7426 32.082 38.7058C31.9895 38.6689 31.9053 38.6143 31.8343 38.5449C31.7633 38.4756 31.7068 38.3929 31.6683 38.3018C31.6298 38.2107 31.6099 38.1129 31.6099 38.0142C31.6099 37.9154 31.6298 37.8176 31.6683 37.7265C31.7068 37.6354 31.7633 37.5528 31.8343 37.4834C31.9053 37.4141 31.9895 37.3594 32.082 37.3226C32.1746 37.2858 32.2738 37.2675 32.3735 37.2689H33.1057C33.2066 37.2674 33.3067 37.2859 33.4001 37.3234C33.4936 37.3608 33.5786 37.4165 33.6499 37.4871C33.7212 37.5577 33.7775 37.6418 33.8153 37.7343C33.8532 37.8269 33.8718 37.926 33.8703 38.0258Z" fill="#F85A00"/>
<path d="M38.3857 32.7867C38.3857 32.5891 38.3064 32.3995 38.1652 32.2598C38.024 32.12 37.8326 32.0414 37.6329 32.0414C37.4333 32.0414 37.2418 32.12 37.1006 32.2598C36.9594 32.3995 36.8801 32.5891 36.8801 32.7867C36.8801 32.9844 36.9594 33.1739 37.1006 33.3136C37.2418 33.4534 37.4333 33.532 37.6329 33.532C37.8326 33.532 38.024 33.4534 38.1652 33.3136C38.3064 33.1739 38.3857 32.9844 38.3857 32.7867Z" fill="#F85A00"/>
</svg>
