<svg width="13" height="9" viewBox="0 0 13 9" fill="none" xmlns="http://www.w3.org/2000/svg">
<path d="M0.414557 0.928778L5.83122 3.83861C6.01322 3.93611 6.24867 3.98233 6.48556 3.98233C6.72244 3.98233 6.95789 3.93611 7.13989 3.83861L12.5566 0.928778C12.9097 0.738833 13.2434 0 12.5956 0H0.376279C-0.271554 0 0.0621123 0.738833 0.414557 0.928778ZM12.7205 2.51983L7.13989 5.42822C6.89433 5.55678 6.72244 5.57194 6.48556 5.57194C6.24867 5.57194 6.07678 5.55678 5.83122 5.42822C5.58567 5.29967 0.679612 2.72783 0.278779 2.51911C-0.00288769 2.37178 1.16715e-06 2.54439 1.16715e-06 2.67728V7.94445C1.16715e-06 8.24778 0.408779 8.66667 0.722223 8.66667H12.2778C12.5912 8.66667 13 8.24778 13 7.94445V2.678C13 2.54511 13.0029 2.3725 12.7205 2.51983Z" fill="white"/>
</svg>
