<svg width="43" height="40" viewBox="0 0 43 40" fill="none" xmlns="http://www.w3.org/2000/svg">
<path d="M34.3313 29.6549C34.0847 29.6549 33.8507 29.7053 33.6307 29.7838V24.7504C33.6307 23.5915 32.6876 22.6484 31.5288 22.6484H22.4204C21.8802 22.6484 21.3919 22.8593 21.0191 23.1949C20.6464 22.8586 20.158 22.6484 19.6178 22.6484H10.5095C9.35062 22.6484 8.40755 23.5915 8.40755 24.7504V29.7838C8.18755 29.7053 7.95354 29.6549 7.70691 29.6549C6.54805 29.6549 5.60498 30.5979 5.60498 31.7568V35.9607C5.60498 36.3481 5.91887 36.6613 6.30562 36.6613H7.00627V38.7632C7.00627 39.1507 7.32015 39.4639 7.70691 39.4639H34.3313C34.7181 39.4639 35.032 39.1507 35.032 38.7632V36.6613H35.7326C36.1194 36.6613 36.4333 36.3481 36.4333 35.9607V31.7568C36.4333 30.5979 35.4902 29.6549 34.3313 29.6549ZM22.4204 24.0497H31.5288C31.9148 24.0497 32.2294 24.3636 32.2294 24.7504V31.7568V32.4574H21.7198V24.7504C21.7198 24.3636 22.0344 24.0497 22.4204 24.0497ZM9.80884 24.7504C9.80884 24.3636 10.1234 24.0497 10.5095 24.0497H19.6178C20.0039 24.0497 20.3185 24.3636 20.3185 24.7504V32.4574H9.80884V31.7568V24.7504ZM7.00627 31.7568C7.00627 31.37 7.32086 31.0562 7.70691 31.0562C8.09296 31.0562 8.40755 31.37 8.40755 31.7568V33.1581V35.26H7.70691H7.00627V31.7568ZM33.6307 38.0626H8.40755V36.6613H9.1082C9.49495 36.6613 9.80884 36.3481 9.80884 35.9607V33.8587H21.0191H32.2294V35.9607C32.2294 36.3481 32.5433 36.6613 32.9301 36.6613H33.6307V38.0626ZM35.032 35.26H34.3313H33.6307V33.1581V31.7568C33.6307 31.37 33.9453 31.0562 34.3313 31.0562C34.7174 31.0562 35.032 31.37 35.032 31.7568V35.26Z" fill="#F85A00"/>
<path d="M6.30568 26.1517C6.50677 26.1517 6.69804 26.0655 6.83116 25.9149C6.96429 25.7635 7.02594 25.5632 7.00142 25.3642L6.30078 19.759C6.25664 19.4087 5.95816 19.1453 5.60504 19.1453H1.40118C1.04806 19.1453 0.749582 19.4087 0.706143 19.759L0.00549948 25.3642C-0.0197237 25.5632 0.0426336 25.7635 0.175756 25.9149C0.308177 26.0655 0.499453 26.1517 0.700538 26.1517H2.80247V39.4639H4.20375V26.1517H6.30568ZM4.98637 20.5465L5.16153 21.9478H1.84469L2.01985 20.5465H4.98637ZM1.66953 23.3491H5.33669L5.51185 24.7504H1.49437L1.66953 23.3491Z" fill="#F85A00"/>
<path d="M21.0192 10.7375C23.7237 10.7375 25.9237 8.53675 25.9237 5.83297C25.9237 3.12919 23.7237 0.928467 21.0192 0.928467C18.3148 0.928467 16.1147 3.12919 16.1147 5.83297C16.1147 8.53675 18.3148 10.7375 21.0192 10.7375ZM21.0192 2.32975C22.9509 2.32975 24.5225 3.9013 24.5225 5.83297C24.5225 7.76464 22.9509 9.33618 21.0192 9.33618C19.0876 9.33618 17.516 7.76464 17.516 5.83297C17.516 3.9013 19.0876 2.32975 21.0192 2.32975Z" fill="#F85A00"/>
<path d="M21.0192 6.53353H23.1212C23.5079 6.53353 23.8218 6.22034 23.8218 5.83289C23.8218 5.44543 23.5079 5.13224 23.1212 5.13224H21.7199V4.4316C21.7199 4.04414 21.406 3.73096 21.0192 3.73096C20.6325 3.73096 20.3186 4.04414 20.3186 4.4316V5.83289C20.3186 6.22034 20.6325 6.53353 21.0192 6.53353Z" fill="#F85A00"/>
<path d="M29.427 16.3429H37.8347C38.2214 16.3429 38.5353 16.0297 38.5353 15.6422V10.0371C38.5353 9.64961 38.2214 9.33643 37.8347 9.33643H29.427C29.0402 9.33643 28.7263 9.64961 28.7263 10.0371V15.6422C28.7263 16.0297 29.0402 16.3429 29.427 16.3429ZM30.1276 10.7377H37.134V14.9416H30.1276V10.7377Z" fill="#F85A00"/>
<path d="M4.20382 16.3429H12.6115C12.9983 16.3429 13.3122 16.0297 13.3122 15.6422V10.0371C13.3122 9.64961 12.9983 9.33643 12.6115 9.33643H4.20382C3.81706 9.33643 3.50317 9.64961 3.50317 10.0371V15.6422C3.50317 16.0297 3.81706 16.3429 4.20382 16.3429ZM4.90446 10.7377H11.9109V14.9416H4.90446V10.7377Z" fill="#F85A00"/>
<path d="M17.5161 14.2407C17.1293 14.2407 16.8154 14.5539 16.8154 14.9414V19.1452C16.8154 19.5327 17.1293 19.8459 17.5161 19.8459H24.5225C24.9093 19.8459 25.2231 19.5327 25.2231 19.1452V14.9414C25.2231 14.5539 24.9093 14.2407 24.5225 14.2407H17.5161ZM23.8219 18.4446H18.2167V15.642H23.8219V18.4446Z" fill="#F85A00"/>
<path d="M41.3323 19.759C41.2889 19.4087 40.9904 19.1453 40.6373 19.1453H36.4334C36.0803 19.1453 35.7818 19.4087 35.7384 19.759L35.0377 25.3642C35.0125 25.5632 35.0749 25.7635 35.208 25.9149C35.3404 26.0655 35.5317 26.1517 35.7328 26.1517H37.8347V39.4639H39.236V26.1517H41.3379C41.539 26.1517 41.7303 26.0655 41.8634 25.9149C41.9965 25.7635 42.0582 25.5632 42.0336 25.3642L41.3323 19.759ZM40.0186 20.5465L40.1938 21.9478H36.8769L37.0521 20.5465H40.0186ZM36.5266 24.7504L36.7018 23.3491H40.3689L40.5441 24.7504H36.5266Z" fill="#F85A00"/>
</svg>
