<svg width="59" height="57" viewBox="0 0 59 57" fill="none" xmlns="http://www.w3.org/2000/svg">
<path d="M24.7462 38.4004H18.9297V39.2969H24.7462V38.4004Z" fill="white"/>
<path d="M58.961 38.4004H55.7021V39.2969H58.961V38.4004Z" fill="white"/>
<path d="M29.8485 28.3876H26.2891V29.0377V41.9354C26.2891 42.8345 27.0177 43.5629 27.9164 43.5629C28.8151 43.5629 29.5437 42.8345 29.5437 41.9354V30.0548H30.1537V41.9354C30.1537 42.8345 30.8823 43.5629 31.781 43.5629C32.6797 43.5629 33.4085 42.8345 33.4085 41.9354V29.5474C33.3944 29.1496 33.3857 28.7625 33.3828 28.3876H29.8485Z" fill="white"/>
<path d="M29.8487 21.8183C31.0479 21.8183 31.8695 19.7351 32.1163 19.0193H27.5813C27.828 19.7351 28.6494 21.8183 29.8487 21.8183Z" fill="white"/>
<path d="M26.8244 19.0596C26.633 19.1006 26.4122 19.171 26.1767 19.2897C25.4692 19.6405 24.7058 20.4085 24.1715 21.7691C23.9584 22.3081 23.7735 22.9437 23.6267 23.6967C23.9216 25.6232 24.0718 27.8191 24.0752 30.3102C24.0752 30.7134 24.07 31.1275 24.0622 31.5468C24.1675 31.5822 24.2782 31.6053 24.3948 31.6053C24.4156 31.6053 24.4367 31.6047 24.4575 31.6033C25.038 31.5695 25.4813 31.071 25.447 30.4908C25.3957 29.6152 25.3723 28.818 25.3723 28.0923C25.3679 24.905 25.8325 23.1149 26.289 22.1806V25.6087C27.3616 23.4298 26.9698 20.0439 26.8244 19.0596Z" fill="white"/>
<path d="M33.4081 25.6091V22.1867C33.4861 22.3467 33.5645 22.53 33.6423 22.7445C33.7013 22.9079 33.7584 23.0901 33.8135 23.2882C33.9487 22.6707 34.1156 22.1105 34.3156 21.6044C34.4821 21.1806 34.6663 20.8178 34.859 20.5062C34.4417 19.9047 33.9637 19.5114 33.5195 19.2897C33.2842 19.171 33.0636 19.1004 32.8725 19.0596C32.7273 20.0441 32.3353 23.4305 33.4081 25.6091Z" fill="white"/>
<path d="M36.4021 29.0377V29.2791C36.4023 29.2852 36.4023 29.291 36.4025 29.2968V29.038V26.9559C36.4023 26.9609 36.4023 26.9667 36.4021 26.9716V29.0377Z" fill="white"/>
<path d="M26.8872 15.3082C26.8872 16.9436 28.2131 18.2695 29.8484 18.2695C31.4838 18.2695 32.8097 16.9436 32.8097 15.3082C32.8097 15.1635 32.796 15.0227 32.7758 14.8835H26.9213C26.9009 15.0227 26.8872 15.1637 26.8872 15.3082Z" fill="white"/>
<path d="M28.4471 11.9482C28.2736 11.9482 28.1329 11.8075 28.1329 11.634V11.3919C27.4202 11.8792 26.9262 12.6613 26.8252 13.563C26.8155 13.6497 26.811 13.7375 26.8086 13.8263H26.7516C26.5322 13.8263 26.3547 14.0042 26.3547 14.2232C26.3547 14.4428 26.532 14.6203 26.7516 14.6203H26.8045H32.8929H32.9457C33.1652 14.6203 33.3427 14.4428 33.3427 14.2232C33.3427 14.004 33.1652 13.8263 32.9457 13.8263H32.8888C32.8864 13.7375 32.8819 13.6497 32.8722 13.563C32.7712 12.6613 32.277 11.879 31.5641 11.3917V11.6342C31.5641 11.8077 31.4236 11.9484 31.2501 11.9484C31.0764 11.9484 30.9357 11.8077 30.9357 11.6342V11.0652C30.6911 10.9715 30.4327 10.9056 30.1627 10.8781V11.6342C30.1627 11.8077 30.0222 11.9484 29.8487 11.9484C29.6752 11.9484 29.5345 11.8077 29.5345 11.6342V10.8781C29.2642 10.9058 29.006 10.9717 28.7615 11.0654V11.6342C28.7613 11.8075 28.6208 11.9482 28.4471 11.9482Z" fill="white"/>
<path d="M47.4372 28.3876C47.4343 28.7621 47.4258 29.1469 47.4119 29.5409V41.9354C47.4119 42.8345 48.1405 43.5629 49.0392 43.5629C49.9379 43.5629 50.6665 42.8345 50.6665 41.9354V30.0548H51.2765V41.9354C51.2765 42.8345 52.0051 43.5629 52.9038 43.5629C53.8025 43.5629 54.5313 42.8345 54.5313 41.9354V29.0377V28.3876H50.9715H47.4372Z" fill="white"/>
<path d="M53.9953 19.0596C53.8501 20.0441 53.4581 23.4305 54.5309 25.6093V22.1867C54.6089 22.3467 54.6873 22.53 54.7651 22.7445C55.136 23.7723 55.4484 25.4594 55.4469 28.0925C55.4469 28.8185 55.4236 29.6154 55.3725 30.491C55.3386 31.0715 55.7817 31.5697 56.3624 31.6033C56.3832 31.6047 56.4041 31.6051 56.4245 31.6051C56.978 31.6051 57.4422 31.1732 57.4747 30.6136C57.528 29.7012 57.5529 28.8631 57.5529 28.0925C57.5473 24.1201 56.913 21.922 56.0477 20.5997C55.6154 19.9435 55.1098 19.5226 54.6423 19.2895C54.407 19.171 54.1862 19.1004 53.9953 19.0596Z" fill="white"/>
<path d="M50.9712 21.8183C52.1705 21.8183 52.9921 19.7351 53.2388 19.0193H48.7036C48.9506 19.7351 49.7722 21.8183 50.9712 21.8183Z" fill="white"/>
<path d="M47.412 22.1807V25.6088C48.4846 23.4297 48.0926 20.044 47.9474 19.0594C47.756 19.1005 47.5352 19.1708 47.2997 19.2896C46.8501 19.5124 46.3783 19.9046 45.9568 20.5093C46.4117 21.2526 46.76 22.1776 47.0041 23.2964C47.1316 22.8344 47.2721 22.4669 47.412 22.1807Z" fill="white"/>
<path d="M48.01 15.3082C48.01 16.9436 49.3359 18.2695 50.9712 18.2695C52.6066 18.2695 53.9325 16.9436 53.9325 15.3082C53.9325 15.1635 53.9186 15.0227 53.8986 14.8835H48.0441C48.0237 15.0227 48.01 15.1637 48.01 15.3082Z" fill="white"/>
<path d="M47.874 13.826C47.6543 13.826 47.4771 14.004 47.4771 14.223C47.4771 14.4426 47.6543 14.6201 47.874 14.6201H47.9269H54.0152H54.0681C54.2875 14.6201 54.465 14.4426 54.465 14.223C54.465 14.0038 54.2875 13.826 54.0681 13.826H54.0111C54.0087 13.7373 54.0042 13.6494 53.9946 13.5627C53.8935 12.6611 53.3993 11.8787 52.6864 11.3915V11.634C52.6864 11.8074 52.5459 11.9482 52.3724 11.9482C52.1987 11.9482 52.058 11.8074 52.058 11.634V11.0649C51.8135 10.9713 51.5551 10.9054 51.285 10.8778V11.634C51.285 11.8074 51.1445 11.9482 50.971 11.9482C50.7975 11.9482 50.6568 11.8074 50.6568 11.634V10.8778C50.3867 10.9056 50.1283 10.9715 49.8838 11.0652V11.634C49.8838 11.8074 49.7433 11.9482 49.5696 11.9482C49.3962 11.9482 49.2554 11.8074 49.2554 11.634V11.3919C48.5427 11.8792 48.0488 12.6613 47.9477 13.5629C47.9378 13.6497 47.9336 13.7375 47.9311 13.8263H47.874V13.826Z" fill="white"/>
<path d="M40.4097 21.8183C41.6092 21.8183 42.4308 19.7351 42.6775 19.0193H38.1421C38.3891 19.7351 39.2107 21.8183 40.4097 21.8183Z" fill="white"/>
<path d="M40.4098 28.3876H36.8506V29.0377V41.9354C36.8506 42.8345 37.579 43.5629 38.4777 43.5629C39.3764 43.5629 40.1052 42.8345 40.1052 41.9354V30.0548H40.715V41.9354C40.715 42.8345 41.4436 43.5629 42.3421 43.5629C43.2412 43.5629 43.9701 42.8345 43.9701 41.9354V29.0377V28.3876H40.4098Z" fill="white"/>
<path d="M36.0083 30.491C35.9565 29.6154 35.9337 28.8182 35.9337 28.0925C35.929 24.9052 36.3938 23.1152 36.8503 22.1808V25.6084C37.9227 23.4294 37.5307 20.0439 37.3857 19.0596C37.1945 19.1004 36.9736 19.171 36.7378 19.2897C36.0305 19.6405 35.2669 20.4085 34.7326 21.7691C34.1925 23.1353 33.8297 25.11 33.8279 28.0923C33.8279 28.8628 33.8528 29.7015 33.9063 30.6141C33.939 31.1732 34.403 31.6053 34.9561 31.6053C34.9771 31.6053 34.9982 31.6047 35.0191 31.6033C35.5995 31.5695 36.0424 31.071 36.0083 30.491Z" fill="white"/>
<path d="M45.4864 20.5999C45.0539 19.9437 44.5483 19.5228 44.0808 19.2897C43.8454 19.171 43.6249 19.1004 43.4337 19.0596C43.2885 20.0441 42.8965 23.4305 43.9696 25.6096V22.1867C44.0476 22.3467 44.1258 22.53 44.2033 22.7445C44.5745 23.7723 44.8871 25.4594 44.8853 28.0925C44.8853 28.8185 44.862 29.6154 44.8109 30.491C44.7771 31.0715 45.2202 31.5697 45.8011 31.6033C45.8217 31.6047 45.8428 31.6051 45.8631 31.6051C46.4165 31.6051 46.8804 31.1732 46.9133 30.6136C46.9667 29.7012 46.9913 28.8631 46.9913 28.0925C46.986 24.1203 46.3513 21.922 45.4864 20.5999Z" fill="white"/>
<path d="M37.4485 15.3082C37.4485 16.9436 38.7744 18.2695 40.4097 18.2695C42.0451 18.2695 43.371 16.9436 43.371 15.3082C43.371 15.1635 43.3571 15.0227 43.3371 14.8835H37.4826C37.4622 15.0227 37.4485 15.1637 37.4485 15.3082Z" fill="white"/>
<path d="M39.0084 11.9482C38.8351 11.9482 38.6942 11.8074 38.6942 11.634V11.3917C37.9815 11.8792 37.4873 12.6613 37.3862 13.5629C37.3766 13.6497 37.3721 13.7375 37.3696 13.8263H37.3132C37.0935 13.8263 36.9163 14.0042 36.9163 14.2232C36.9163 14.4428 37.0935 14.6203 37.3132 14.6203H37.3656H43.4544H43.5073C43.7265 14.6203 43.9042 14.4428 43.9042 14.2232C43.9042 14.004 43.7265 13.8263 43.5073 13.8263H43.4503C43.4479 13.7375 43.4434 13.6497 43.4338 13.5629C43.3327 12.6615 42.8385 11.8792 42.1258 11.3917V11.634C42.1258 11.8074 41.9849 11.9482 41.8116 11.9482C41.6379 11.9482 41.4974 11.8074 41.4974 11.634V11.0652C41.2529 10.9715 40.9945 10.9056 40.7244 10.8778V11.634C40.7244 11.8074 40.5839 11.9482 40.4102 11.9482C40.2365 11.9482 40.096 11.8074 40.096 11.634V10.8778C39.826 10.9056 39.5675 10.9715 39.323 11.0652V11.634C39.3226 11.8074 39.1821 11.9482 39.0084 11.9482Z" fill="white"/>
<path d="M12.3458 13.5162C14.7394 13.1233 16.5659 11.0462 16.5659 8.5415C16.5659 8.29587 16.5473 8.05494 16.5137 7.81873H6.53293C6.49909 8.05494 6.48071 8.29587 6.48071 8.5415C6.48071 11.0462 8.30725 13.1233 10.7008 13.5162C10.9686 13.5601 11.2432 13.5841 11.5233 13.5841C11.8035 13.5841 12.078 13.5603 12.3458 13.5162Z" fill="white"/>
<path d="M6.24942 6.01793C5.87604 6.01793 5.57349 6.32093 5.57349 6.69453C5.57349 7.06813 5.87604 7.37069 6.24942 7.37069H6.33951H16.7073H16.7972C17.171 7.37069 17.4733 7.06813 17.4733 6.69453C17.4733 6.32093 17.171 6.01793 16.7972 6.01793H16.704C16.6999 5.86688 16.6903 5.71717 16.6737 5.5697C16.5016 4.03406 15.6591 2.70124 14.4449 1.87112V2.28506C14.4449 2.58045 14.2055 2.82047 13.9099 2.82047C13.6145 2.82047 13.3745 2.58067 13.3745 2.28506V1.31128C12.9588 1.15216 12.5179 1.04413 12.0585 0.99707V2.28506C12.0585 2.58045 11.8191 2.82047 11.5235 2.82047C11.2277 2.82047 10.9881 2.58067 10.9881 2.28506V0.99707C10.5287 1.04436 10.0876 1.15238 9.67189 1.3115V2.28506C9.67189 2.58045 9.43231 2.82047 9.13647 2.82047C8.84109 2.82047 8.60151 2.58067 8.60151 2.28506V1.87157C7.38748 2.70147 6.54525 4.03406 6.37313 5.5697C6.35655 5.71717 6.34668 5.86688 6.34287 6.01793H6.24942Z" fill="white"/>
<path d="M4.48231 48.7091V37.9515C4.48231 37.6564 4.33753 37.3964 4.11745 37.2332C4.06456 37.194 4.00853 37.1595 3.94757 37.1324C3.83663 37.0833 3.71471 37.0551 3.58585 37.0551H2.87607V36.1765C3.58854 35.9058 4.07532 35.1967 4.02825 34.3959C3.94062 32.9051 3.9014 31.5477 3.9014 30.3119C3.89401 24.8845 4.68491 21.8361 5.46237 20.2446V27.6765V31.921V53.8843C5.46237 55.4151 6.70329 56.6551 8.23311 56.6551C9.76337 56.6551 11.0043 55.4151 11.0043 53.8843V33.6532H12.0431V53.8843C12.0431 55.4151 13.284 56.6551 14.8138 56.6551C16.3441 56.6551 17.585 55.4151 17.585 53.8843V31.921V27.6765V20.2547C17.7177 20.5272 17.8515 20.8399 17.9837 21.2045C18.6155 22.9555 19.1471 25.8282 19.1451 30.3123C19.1451 31.5481 19.1052 32.9053 19.0182 34.3964C18.9606 35.3847 19.7152 36.233 20.7038 36.2904C20.7394 36.2926 20.7748 36.2935 20.8098 36.2935C21.7522 36.2935 22.5424 35.5582 22.598 34.6053C22.6888 33.0515 22.7311 31.6248 22.7311 30.3126C22.7219 23.5479 21.6415 19.8045 20.1682 17.553C19.4322 16.4358 18.5709 15.7191 17.7748 15.3221C16.9797 14.921 16.282 14.8414 15.8842 14.8428C15.7412 14.8428 15.6341 14.8524 15.5671 14.8607C15.5655 14.8607 15.5639 14.8611 15.5626 14.8614H7.48277C7.48142 14.8611 7.48008 14.8609 7.47896 14.8607C7.41172 14.8524 7.3046 14.8425 7.16206 14.8425C6.76425 14.8416 6.06613 14.9212 5.2712 15.3221C4.0659 15.9196 2.76626 17.2271 1.8568 19.5445C0.936803 21.8706 0.318468 25.2339 0.315555 30.3121C0.315555 31.6243 0.357912 33.0519 0.449127 34.6059C0.491709 35.3345 0.964817 35.9352 1.60646 36.1777V37.0553H0.896462C0.766923 37.0553 0.644556 37.084 0.533395 37.1335C0.219409 37.2725 0 37.586 0 37.9515V48.7091C0 49.2041 0.401391 49.6055 0.896462 49.6055H3.58585C3.78576 49.6055 3.96841 49.5379 4.11745 49.4274C4.33753 49.264 4.48231 49.0042 4.48231 48.7091ZM10.6715 16.2072H11.5233H12.3745L12.8006 17.888L12.7358 17.9902C12.3848 18.2829 11.955 18.4295 11.5229 18.43C11.0908 18.4295 10.6614 18.2832 10.3107 17.9909L10.2454 17.888L10.6715 16.2072ZM10.6206 18.9367C10.9113 19.0456 11.2172 19.1025 11.5229 19.1023H11.5233C11.5233 19.1023 11.524 19.1023 11.5245 19.1023C11.8299 19.1023 12.1352 19.0454 12.4256 18.9365L13.6524 27.9732L11.5233 30.6626L9.39425 27.9732L10.6206 18.9367Z" fill="white"/>
</svg>
