<svg width="42" height="56" viewBox="0 0 42 56" fill="none" xmlns="http://www.w3.org/2000/svg">
<path d="M20.5109 6.53333C16.3939 6.53333 13.0442 9.88306 13.0442 14C13.0442 18.1169 16.3939 21.4667 20.5109 21.4667C24.6278 21.4667 27.9775 18.1169 27.9775 14C27.9775 9.88306 24.6278 6.53333 20.5109 6.53333ZM20.5109 17.7333C18.4519 17.7333 16.7775 16.0589 16.7775 14C16.7775 11.9411 18.4519 10.2667 20.5109 10.2667C22.5698 10.2667 24.2442 11.9411 24.2442 14C24.2442 16.0589 22.5698 17.7333 20.5109 17.7333Z" fill="white"/>
<path d="M20.511 15.8666C21.5419 15.8666 22.3776 15.0309 22.3776 14C22.3776 12.969 21.5419 12.1333 20.511 12.1333C19.48 12.1333 18.6443 12.969 18.6443 14C18.6443 15.0309 19.48 15.8666 20.511 15.8666Z" fill="white"/>
<path d="M32.4866 12.1333C32.1898 10.2172 31.4506 8.45227 30.3689 6.94307L31.711 5.6L28.911 2.8L27.5679 4.14307C26.0587 3.0604 24.2938 2.3212 22.3777 2.0244V0H18.6443V2.0244C16.7282 2.3212 14.9633 3.0604 13.4541 4.14213L12.111 2.8L9.31099 5.6L10.6541 6.94307C9.57139 8.45227 8.83219 10.2172 8.53632 12.1333H6.51099V15.8667H8.53539C8.83219 17.7828 9.57139 19.5477 10.6531 21.0569L9.31099 22.4L12.111 25.2L13.4541 23.8569C14.9633 24.9396 16.7282 25.6788 18.6443 25.9747V28H22.3777V25.9756C24.2938 25.6788 26.0587 24.9396 27.5679 23.8579L28.911 25.2L31.711 22.4L30.3679 21.0569C31.4506 19.5477 32.1898 17.7828 32.4857 15.8667H34.511V12.1333H32.4866ZM20.511 23.3333C15.3646 23.3333 11.1777 19.1464 11.1777 14C11.1777 8.8536 15.3646 4.66667 20.511 4.66667C25.6574 4.66667 29.8443 8.8536 29.8443 14C29.8443 19.1464 25.6574 23.3333 20.511 23.3333Z" fill="white"/>
<path d="M28.911 28.9333V38.2667L20.511 43.8667L12.111 38.2667V28.9333L6.51099 34.5333V42.9333L13.9777 48.5333V56H22.3777V46.6667C22.3777 46.3736 22.5158 46.0964 22.751 45.92L26.4843 43.12L27.6034 44.6133L24.2443 47.1334V56H27.0443V48.5333L34.511 42.9333V34.5333L28.911 28.9333Z" fill="white"/>
<path d="M38.011 37.8149L36.4197 36.8377C36.7715 36.2665 37.0945 35.672 37.3791 35.0709L39.0657 35.8727C38.7511 36.5344 38.3965 37.1868 38.011 37.8149Z" fill="white"/>
<path d="M39.8803 33.8978L38.1191 33.278C38.3273 32.6872 38.5065 32.0824 38.653 31.4795L40.4665 31.921C40.3069 32.5836 40.109 33.2482 39.8803 33.8978Z" fill="white"/>
<path d="M40.8409 29.9684L38.9929 29.7062C39.0741 29.134 39.1292 28.5451 39.1572 27.9562L41.022 28.0439C40.9912 28.6907 40.9305 29.3384 40.8409 29.9684Z" fill="white"/>
<path d="M39.1542 26.1184C39.1252 25.5426 39.0692 24.9639 38.988 24.3983L40.836 24.1342C40.9247 24.7558 40.9854 25.3914 41.018 26.0232L39.1542 26.1184Z" fill="white"/>
<path d="M38.6455 22.6212C38.4999 22.023 38.3197 21.4219 38.1125 20.832L39.8719 20.2104C40.1015 20.8582 40.2993 21.5199 40.4599 22.1779L38.6455 22.6212Z" fill="white"/>
<path d="M37.3745 19.0521C37.0861 18.4482 36.7632 17.8546 36.415 17.289L38.0045 16.3099C38.3872 16.9315 38.7428 17.583 39.0592 18.2475L37.3745 19.0521Z" fill="white"/>
<path d="M3.6399 19.067L1.95337 18.2672C2.2707 17.5998 2.6291 16.9418 3.01737 16.3109L4.60684 17.29C4.2531 17.863 3.92737 18.4613 3.6399 19.067Z" fill="white"/>
<path d="M2.37621 22.6212L0.562744 22.1779C0.724211 21.5171 0.921145 20.8582 1.14701 20.2207L2.90634 20.8442C2.70101 21.4238 2.52274 22.0211 2.37621 22.6212Z" fill="white"/>
<path d="M1.8648 26.1764L0 26.0905C0.0298667 25.4353 0.0933333 24.7773 0.1848 24.1333L2.0328 24.3993C1.9488 24.9845 1.8928 25.5809 1.8648 26.1764Z" fill="white"/>
<path d="M0.185777 30.0001C0.0933765 29.357 0.0308432 28.6981 0.000976562 28.0429L1.86578 27.957C1.89284 28.5525 1.94978 29.1489 2.03471 29.7332L0.185777 30.0001Z" fill="white"/>
<path d="M1.14608 33.9107C0.918344 33.2658 0.722344 32.6068 0.562744 31.9544L2.37621 31.5111C2.51994 32.1038 2.69914 32.7011 2.90634 33.2882L1.14608 33.9107Z" fill="white"/>
<path d="M3.01737 37.8224C2.6291 37.1915 2.2707 36.5335 1.95337 35.8662L3.6399 35.0663C3.9283 35.6711 4.2531 36.2703 4.60684 36.8434L3.01737 37.8224Z" fill="white"/>
</svg>
