<svg width="58" height="42" viewBox="0 0 58 42" fill="none" xmlns="http://www.w3.org/2000/svg">
<path d="M54.1994 25.4977L55.8014 26.499L57.6036 23.6956L27.6337 4.67236L0 23.6956L1.86895 26.4322L2.00244 26.2987V37.0452H0.934469V41.2503H56.0016V37.0452H54.1994V25.4977ZM28.0342 9.61171H30.0366V11.8144H28.0342V9.61171ZM28.0342 13.1494H30.0366V14.7513H28.0342V13.1494ZM28.0342 16.0195H30.0366V18.2222H28.0342V16.0195ZM24.6968 9.61171H26.6992V11.8144H24.6968V9.61171ZM24.6968 13.1494H26.6992V14.7513H24.6968V13.1494ZM24.6968 16.0195H26.6992V18.2222H24.6968V16.0195ZM5.0061 37.1119H3.3374V31.2381H5.0061V37.1119ZM7.47579 37.1119H6.20757V31.2381H7.47579V37.1119ZM10.1457 37.1119H8.87749V31.2381H10.1457V37.1119ZM12.6821 37.1119H11.4139V31.2381H12.6821V37.1119ZM15.352 37.1119H14.0838V31.2381H15.352V37.1119ZM15.8193 29.9031H3.3374V25.431L15.8193 16.8205V29.9031ZM21.3594 32.7065H19.3569V30.5706H21.3594V32.7065ZM21.3594 29.2356H19.3569V27.4334H21.3594V29.2356ZM21.3594 26.0985H19.3569V24.0293H21.3594V26.0985ZM24.6968 32.7065H22.6943V30.5706H24.6968V32.7065ZM24.6968 29.2356H22.6943V27.4334H24.6968V29.2356ZM24.6968 26.0985H22.6943V24.0293H24.6968V26.0985ZM31.0378 32.7065H29.0354V30.5706H31.0378V32.7065ZM31.0378 29.2356H29.0354V27.4334H31.0378V29.2356ZM29.1689 26.0985V23.9625H31.1713V26.0985H29.1689ZM34.3752 32.7065H32.3728V30.5706H34.3752V32.7065ZM34.3752 29.2356H32.3728V27.4334H34.3752V29.2356ZM32.3728 26.0985V23.9625H34.3752V26.0985H32.3728ZM43.8535 32.7065H41.851V30.5706H43.8535V32.7065ZM43.8535 29.2356H41.851V27.4334H43.8535V29.2356ZM43.8535 26.0985H41.851V24.0293H43.8535V26.0985ZM47.1909 32.7065H45.1884V30.5706H47.1909V32.7065ZM47.1909 29.2356H45.1884V27.4334H47.1909V29.2356ZM47.1909 26.0985H45.1884V24.0293H47.1909V26.0985Z" fill="white"/>
<path d="M27.7005 4.00488L43.0525 13.7501L44.8547 10.9467L38.1799 6.74156V0.66748H33.1738V3.60439L27.5002 0L11.4807 11.0134L13.4832 13.7501L27.7005 4.00488Z" fill="white"/>
</svg>
