<svg width="48" height="59" viewBox="0 0 48 59" fill="none" xmlns="http://www.w3.org/2000/svg">
<path d="M26.4764 11.3417C26.8722 10.8139 27.107 10.158 27.107 9.44801C27.107 7.92751 26.0304 6.65491 24.6025 6.35756L24.7225 0C29.9836 0.321061 34.1665 4.71798 34.1665 10.0793C34.1665 10.4952 34.1395 10.918 34.0859 11.3417H26.4764Z" fill="white"/>
<path d="M35.0719 15.1291H12.8546C12.6603 15.1291 12.5021 14.9705 12.5021 14.7753V12.9581C12.5021 12.763 12.6603 12.6042 12.8546 12.6042H13.5861H34.6263H35.0719C35.2663 12.6042 35.4243 12.763 35.4243 12.9581V14.7753C35.4243 14.9705 35.2663 15.1291 35.0719 15.1291Z" fill="white"/>
<path d="M25.8496 9.44793C25.8496 10.4921 25.0034 11.3417 23.9631 11.3417C22.923 11.3417 22.0768 10.4921 22.0768 9.44793C22.0768 8.40374 22.9229 7.55408 23.963 7.55408C25.0033 7.55408 25.8496 8.40374 25.8496 9.44793Z" fill="white"/>
<path d="M20.8191 9.44808C20.8191 10.1581 21.0539 10.814 21.4497 11.3418H14.1259C14.0725 10.9182 14.0454 10.4953 14.0454 10.0794C14.0454 4.72644 18.2153 0.33522 23.4648 0.00183105L23.345 6.35329C21.9063 6.64252 20.8191 7.91999 20.8191 9.44808Z" fill="white"/>
<path d="M13.9597 36.5678L16.3794 33.6816L22.8862 42.0842L19.9348 44.0662L13.9597 36.5678Z" fill="white"/>
<path d="M16.9123 26.535C15.3882 23.855 14.4035 20.3422 14.4035 17.5855C14.4035 17.2018 14.4235 16.8176 14.4626 16.4515H33.1242C33.1632 16.8176 33.1833 17.2018 33.1833 17.5855C33.1833 20.3392 32.2007 23.8523 30.6799 26.5357C29.3856 28.8194 27.1444 31.5418 23.8166 31.5418C20.4633 31.542 18.2111 28.8192 16.9123 26.535Z" fill="white"/>
<path d="M12.9294 37.2962L19.3134 45.3074C19.3364 45.3361 19.3617 45.3613 19.3885 45.385C19.3937 45.3896 19.3988 45.3944 19.4042 45.3991C19.4303 45.4207 19.4575 45.44 19.4862 45.457C19.4922 45.4605 19.4986 45.4636 19.5046 45.467C19.5327 45.4822 19.5613 45.4957 19.5911 45.5064C19.594 45.5074 19.5967 45.5088 19.5996 45.5098C19.6307 45.5206 19.6632 45.5281 19.6956 45.5339C19.7033 45.5353 19.711 45.5366 19.7188 45.5376C19.7473 45.5415 19.776 45.5443 19.8049 45.5443C19.8078 45.5443 19.8109 45.5437 19.8139 45.5437C19.8248 45.5434 19.8356 45.5419 19.8467 45.5411C19.8707 45.5395 19.8947 45.537 19.9188 45.5326C19.9313 45.5302 19.9435 45.5274 19.9557 45.5243C19.9794 45.5185 20.0026 45.5107 20.0258 45.5022C20.0364 45.498 20.0472 45.4945 20.0579 45.4899C20.0908 45.4752 20.1231 45.4585 20.1541 45.4377L23.8108 42.9822L27.7974 45.4503C27.8295 45.4702 27.8635 45.4859 27.8983 45.4995C27.9081 45.5033 27.918 45.5068 27.9278 45.5102C27.9577 45.5201 27.9879 45.5282 28.0188 45.5336C28.0251 45.5347 28.0312 45.5365 28.0376 45.5374C28.0674 45.5416 28.0972 45.5442 28.1274 45.5442C28.134 45.5442 28.1406 45.5431 28.1471 45.5428C28.1559 45.5427 28.1647 45.5419 28.1734 45.5412C28.2105 45.5384 28.2478 45.5336 28.2844 45.5242C28.4501 45.4813 28.5909 45.3726 28.6751 45.2231L33.2576 37.0724L48 40.2231V58.0547H39.1969V48.1529C39.1969 47.8044 38.9155 47.5218 38.5682 47.5218C38.2209 47.5218 37.9394 47.8044 37.9394 48.1529V58.0547H10.2726V48.1529C10.2726 47.8044 9.99111 47.5218 9.64391 47.5218C9.29658 47.5218 9.01509 47.8044 9.01509 48.1529V58.0547H0.212029V41.5731L12.9294 37.2962ZM15.9317 54.267H32.2802C32.6274 54.267 32.909 53.9844 32.909 53.6358C32.909 53.2872 32.6274 53.0046 32.2802 53.0046H15.9317C15.5844 53.0046 15.3029 53.2872 15.3029 53.6358C15.3029 53.9846 15.5844 54.267 15.9317 54.267ZM15.9317 50.4795H32.2802C32.6274 50.4795 32.909 50.1969 32.909 49.8483C32.909 49.4996 32.6274 49.217 32.2802 49.217H15.9317C15.5844 49.217 15.3029 49.4996 15.3029 49.8483C15.3029 50.197 15.5844 50.4795 15.9317 50.4795Z" fill="white"/>
<path d="M32.196 36.392L27.9012 44.0313L24.6926 42.0448L30.4097 33.7877L32.196 36.392Z" fill="white"/>
</svg>
