<svg width="35" height="24" viewBox="0 0 35 24" fill="none" xmlns="http://www.w3.org/2000/svg">
<path d="M30.5786 1.16364C30.2136 0.436363 29.4834 0 28.6073 0C28.2422 0 27.9501 0.0727267 27.5851 0.218181L26.3438 0.872727C25.3946 1.38182 24.9566 2.47273 25.2486 3.49091L23.5693 4.29091C22.036 4.8 21.1598 4.50909 20.2837 4.21818C18.8964 3.78182 18.7504 3.85455 17.6552 4.14545C16.4139 4.43636 15.6108 4.65455 15.1727 4.72727L14.2965 4.14545C13.4204 3.56364 12.3252 3.27273 11.303 3.34545H10.4998C10.5728 2.47273 10.2078 1.67273 9.55063 1.23636L8.38241 0.436363C7.2872 -0.145455 5.97295 0.145454 5.31582 1.16364L0.350877 8.87273C-0.306248 9.89091 -0.0141924 11.2 1.008 11.8545L2.17622 12.6545C2.54129 12.8727 2.90636 13.0182 3.34445 13.0182C3.85554 13.0182 4.29363 12.8727 4.6587 12.5818C4.95075 13.0182 5.38884 13.3091 5.75391 13.6C5.82692 13.6727 5.89993 13.6727 5.97295 13.7455L5.89993 13.8182C5.46185 14.3273 5.38884 14.7636 5.38884 15.1273C5.46185 16 6.11898 16.5818 6.41103 16.8L6.48404 16.8727C6.48404 16.8727 6.48405 16.8727 6.55706 16.9455C6.84911 17.2364 7.2872 17.3818 7.65227 17.4545C7.7983 18.1091 8.38241 18.6182 8.60145 18.8364C8.96652 19.2 9.4046 19.3455 9.9157 19.3455H9.98871C10.2078 19.9273 10.6458 20.3636 10.8649 20.5818C11.2299 20.8727 11.595 21.0909 11.9601 21.0909C12.1061 21.6 12.5442 21.9636 12.9823 22.3273C13.1283 22.4727 13.3474 22.6182 13.4204 22.7636L13.4934 22.8364C13.7854 23.0545 14.0775 23.2 14.4426 23.2C15.0997 23.2 15.3917 22.8364 15.4648 22.7636C16.1219 23.3455 16.56 24 17.6552 24C18.3853 24 19.0424 23.6364 19.4805 23.0545C19.6996 22.6909 19.8456 22.2545 19.8456 21.8909C20.3567 21.8182 20.8678 21.6 21.2329 21.2364C21.5979 20.8727 21.817 20.3636 21.817 19.7818C22.3281 19.7091 22.8392 19.4909 23.2042 19.1273C23.5693 18.6909 23.7883 18.1818 23.7883 17.6727C24.2994 17.6 24.8105 17.3818 25.1756 17.0182C25.5407 16.5818 25.7597 16 25.7597 15.4182C25.7597 15.2727 25.7597 15.2 25.6867 15.0545L28.3882 12.8727L29.7025 12.4364C30.1405 13.0182 30.7977 13.4545 31.5278 13.4545C31.8929 13.4545 32.1849 13.3818 32.55 13.2364L33.7912 12.5818C34.8865 12 35.3245 10.6909 34.7404 9.67273L30.5786 1.16364ZM4.00157 11.2C3.78253 11.4909 3.34445 11.6364 2.97938 11.4182L1.81116 10.6182C1.44609 10.4 1.37307 9.96364 1.59211 9.6L6.55706 1.96364C6.7761 1.6 7.21418 1.52727 7.57925 1.74545C7.87131 2.03636 9.62364 2.54545 8.96652 3.49091L4.00157 11.2ZM8.60145 15.1273C8.52843 15.2 7.94432 15.8545 8.01734 15.7818C7.72528 16.0727 7.50624 15.7818 7.36021 15.6364C6.99514 15.3455 6.84911 15.1273 6.84911 14.9818C6.84911 14.8364 6.99514 14.6909 7.57925 14.1091C7.87131 13.8909 8.01734 13.4545 8.45542 13.4545C8.8935 13.4545 9.25857 13.7455 9.25857 14.1818C9.18556 14.6909 8.82049 14.8364 8.60145 15.1273ZM10.2078 17.6727C9.76967 18.1091 9.03953 17.2364 8.96652 16.9455C8.96652 16.7273 9.25857 16.5091 10.6458 15.0545C10.9379 14.7636 11.376 14.7636 11.668 15.0545C11.9601 15.3455 11.9601 15.7818 11.668 16.0727C11.668 16.1455 10.1347 17.7455 10.2078 17.6727ZM13.2013 18.6909C13.0553 18.8364 12.9823 18.9818 12.9093 19.0545C12.6172 19.2727 12.3252 19.7818 11.9601 19.4182C11.8871 19.3455 11.8871 19.3455 11.8141 19.3455C11.0839 18.6909 11.376 18.6182 11.522 18.4C12.0331 17.8909 12.6172 17.0909 13.1283 17.0909C13.2013 17.0909 13.3474 17.0909 13.4934 17.2364C14.1505 18.0364 13.7124 18.1818 13.2013 18.6909ZM14.5156 21.6C14.2235 21.3091 13.6394 20.8727 13.4204 20.5818C13.8584 20.0727 14.2965 19.6364 14.8806 20.1455C15.6108 20.8 14.5886 21.4545 14.5156 21.6ZM24.1534 15.7818C24.0074 15.9273 23.8614 16 23.6423 16C23.4233 16 23.2772 15.9273 23.1312 15.7818C21.5979 14.6909 20.6487 13.0182 19.8456 13.9636C19.5535 14.2545 19.6265 14.7636 19.9186 14.9818L22.109 16.8727C22.4011 17.1636 22.4011 17.6 22.182 17.8909C22.036 18.0364 21.89 18.1091 21.6709 18.1091C21.5249 18.1091 21.3059 18.0364 21.1598 17.9636C19.7726 16.8 19.3345 15.9273 18.7504 15.9273H18.6774C18.5313 15.9273 18.3853 16 18.2393 16.1455C18.0202 16.3636 18.0202 16.7273 18.0933 16.9455L18.2393 17.1636C19.0424 17.8909 20.2107 19.0545 20.1376 18.9818C20.4297 19.2727 20.4297 19.7091 20.1376 20C19.8456 20.2909 19.4075 20.2909 19.1154 20.0727C18.3123 19.3455 17.2901 17.8909 16.56 18.6909C15.4648 19.8545 19.0424 20.8727 18.2393 22.0364C18.1663 22.1091 17.8742 22.5455 17.2901 22.3273C17.1441 22.2545 17.1441 22.2545 16.3409 21.4545C16.706 20.5818 16.4869 19.6364 15.8298 19.0545C15.6108 18.8364 15.3187 18.6909 15.0267 18.6182C15.2457 18.0364 15.3187 17.3091 14.5886 16.3636C14.5886 16.2909 14.5156 16.2909 14.5156 16.2182C14.1505 15.8545 13.7854 15.7091 13.3474 15.6364C13.3474 15.5636 13.3474 15.5636 13.3474 15.4909C13.3474 14.9091 13.0553 14.4 12.6172 13.9636C12.0331 13.4545 11.1569 13.3091 10.4268 13.5273C10.2808 13.2364 10.1347 12.8727 9.84268 12.6545C9.18556 12 7.87131 11.7091 6.84911 12.6545C6.7761 12.5818 6.63007 12.5091 6.55706 12.4364C5.97295 12 5.68089 11.7091 5.53486 11.2727L9.69666 4.87273L11.2299 4.8C11.8871 4.8 12.4712 4.94545 13.0553 5.16364C11.668 5.52727 10.8649 6.98182 11.2299 8.36364C11.595 9.67273 12.8363 10.6182 14.3695 10.2545C15.2457 10.1091 15.9028 9.96364 16.4869 9.81818C17.6552 9.52727 17.9472 9.45455 18.3123 9.74545L20.8678 11.7818L24.0804 14.6909C24.2264 14.8364 24.2994 14.9818 24.2994 15.2C24.2994 15.4182 24.2994 15.6364 24.1534 15.7818ZM27.8771 11.2727C27.8041 11.2727 27.7311 11.3455 27.6581 11.4182L24.9566 13.5273L21.89 10.6909L19.3345 8.65455C18.3853 7.92727 17.5091 8.14546 16.2679 8.43636C15.7568 8.58182 15.0997 8.72727 14.2965 8.87273C13.6394 9.01818 12.9823 8.65455 12.8363 8C12.6902 7.34545 13.0553 6.76364 13.7124 6.54545C14.7346 6.32727 14.3695 6.4 17.4361 5.67273H17.5091L18.0202 5.52727C19.1154 5.23636 18.8964 5.16364 19.9916 5.52727C20.5757 5.74545 21.3059 5.96364 22.255 5.96364C22.8392 5.96364 23.5693 5.89091 24.3724 5.6L26.1248 4.8L29.2644 10.8364L27.8771 11.2727ZM33.2071 10.9818L31.9659 11.6364C31.6008 11.8545 31.1627 11.6364 31.0167 11.3455L27.0009 3.63636L26.7819 3.27273C26.5629 2.90909 26.7089 2.47273 27.074 2.32727L28.3152 1.67273C28.3882 1.6 28.5342 1.6 28.6803 1.6C28.9723 1.6 29.1914 1.74545 29.3374 1.96364L33.5722 10.1091C33.6452 10.3273 33.5722 10.7636 33.2071 10.9818Z" fill="#F85A00"/>
</svg>
