<svg width="15" height="15" viewBox="0 0 15 15" fill="none" xmlns="http://www.w3.org/2000/svg">
<circle cx="7.5" cy="7.5" r="7.5" fill="#F85A00"/>
<path d="M7.5 11C5.83321 8.8685 5 7.35195 5 6.45C5 6.12826 5.06466 5.80967 5.1903 5.51243C5.31594 5.21518 5.50009 4.94509 5.73223 4.71759C5.96438 4.49008 6.23998 4.30962 6.54329 4.1865C6.84661 4.06337 7.1717 4 7.5 4C7.8283 4 8.15339 4.06337 8.45671 4.1865C8.76002 4.30962 9.03562 4.49008 9.26777 4.71759C9.49991 4.94509 9.68406 5.21518 9.8097 5.51243C9.93534 5.80967 10 6.12826 10 6.45C10 7.35195 9.16679 8.8685 7.5 11ZM7.5 7.85C7.87888 7.85 8.24224 7.7025 8.51015 7.43995C8.77806 7.1774 8.92857 6.8213 8.92857 6.45C8.92857 6.0787 8.77806 5.7226 8.51015 5.46005C8.24224 5.1975 7.87888 5.05 7.5 5.05C7.12112 5.05 6.75776 5.1975 6.48985 5.46005C6.22194 5.7226 6.07143 6.0787 6.07143 6.45C6.07143 6.8213 6.22194 7.1774 6.48985 7.43995C6.75776 7.7025 7.12112 7.85 7.5 7.85Z" fill="white"/>
</svg>
