<svg width="10" height="10" viewBox="0 0 10 10" fill="none" xmlns="http://www.w3.org/2000/svg">
<path d="M5 0C2.23856 0 0 2.23856 0 5C0 7.76156 2.23856 10 5 10C7.76156 10 10 7.76156 10 5C10 2.23856 7.76156 0 5 0ZM4.99989 7.97222C4.62856 7.97222 4.32644 7.67033 4.32644 7.29922C4.32644 6.92744 4.62856 6.62522 4.99989 6.62522C5.37133 6.62522 5.67356 6.92778 5.67356 7.29922C5.67367 7.67033 5.37133 7.97222 4.99989 7.97222ZM6.80422 4.312C6.67378 4.515 6.49367 4.75756 6.13444 5.03767C5.77744 5.31111 5.66944 5.45144 5.63689 5.51089C5.61844 5.54411 5.59222 5.61033 5.57133 5.73356C5.56411 5.77689 5.55811 5.82378 5.55333 5.87411L5.52511 6.17567L4.43944 6.17822L4.45322 5.83078C4.45511 5.78633 4.45989 5.69911 4.47189 5.61767C4.50789 5.37 4.59244 5.15 4.72311 4.96411C4.84578 4.78933 5.08389 4.56822 5.45078 4.28867C5.72211 4.08167 5.82811 3.96333 5.869 3.90067C5.92122 3.821 5.94644 3.73711 5.94644 3.64456C5.94644 3.43 5.86811 3.26011 5.71378 3.13956C5.55 3.01167 5.32289 2.94678 5.039 2.94678C4.78733 2.94678 4.575 3.01333 4.40767 3.14433C4.23056 3.282 4.10622 3.47244 4.04711 3.69589L3.97378 3.97278L2.91122 3.85756L2.98633 3.49778C3.08411 3.02911 3.30467 2.66733 3.64211 2.42256C4.07922 2.10533 4.54833 1.94444 5.03678 1.94444C5.57633 1.94444 6.018 2.08322 6.42656 2.38122C6.80422 2.657 7.02089 3.10256 7.02089 3.60367C7.02089 3.84911 6.95 4.08078 6.80422 4.312Z" fill="#BCC1C8"/>
</svg>
