<svg width="33" height="39" viewBox="0 0 33 39" fill="none" xmlns="http://www.w3.org/2000/svg">
<path d="M31.7961 39V29.4959L32.9327 25.3141C33.0343 24.9409 33.0206 24.5466 32.8934 24.181C32.7662 23.8155 32.5311 23.4953 32.2182 23.261C31.9052 23.0267 31.5284 22.889 31.1355 22.8652C30.7426 22.8414 30.3513 22.9326 30.0114 23.1274L28.67 23.8952C28.2172 23.5806 27.7292 23.3178 27.2155 23.1118L22.1685 21.131C22.9256 20.2359 23.4461 19.1715 23.6839 18.0319L25.3984 17.1907C25.7292 17.0297 26.0074 16.781 26.2016 16.4727C26.3957 16.1645 26.498 15.8091 26.4968 15.4467V14.95C26.4962 14.433 26.2867 13.9373 25.9141 13.5718C25.5415 13.2062 25.0364 13.0006 24.5095 13H23.8471V11.5802C24.2342 11.4478 24.5697 11.2004 24.807 10.8725C25.0444 10.5445 25.172 10.1523 25.172 9.75C25.172 9.34776 25.0444 8.95547 24.807 8.62754C24.5697 8.2996 24.2342 8.05225 23.8471 7.91978V7.15C23.8453 5.59902 23.2167 4.11207 22.099 3.01536C20.9813 1.91865 19.466 1.30175 17.8853 1.3H17.7633C17.6283 0.920197 17.3762 0.591009 17.042 0.358075C16.7078 0.125141 16.308 0 15.8981 0C15.4882 0 15.0884 0.125141 14.7542 0.358075C14.42 0.591009 14.1679 0.920197 14.0329 1.3H13.9108C12.3302 1.30175 10.8149 1.91865 9.6972 3.01536C8.57953 4.11207 7.95085 5.59902 7.94907 7.15V7.91978C7.56199 8.05223 7.2265 8.29957 6.98911 8.62751C6.75171 8.95545 6.62417 9.34773 6.62417 9.74998C6.62417 10.1522 6.75171 10.5445 6.98911 10.8725C7.2265 11.2004 7.56199 11.4477 7.94907 11.5802V13H7.28665C6.75977 13.0006 6.25464 13.2062 5.88208 13.5718C5.50952 13.9373 5.29997 14.433 5.29939 14.95V15.4467C5.29821 15.8091 5.40049 16.1645 5.59462 16.4727C5.78876 16.781 6.067 17.0297 6.39781 17.1907L8.11233 18.0319C8.35015 19.1715 8.87067 20.2359 9.6278 21.131L4.58069 23.1122C3.22572 23.6389 2.06394 24.554 1.24684 25.7382C0.429747 26.9224 -0.00473992 28.3207 3.90026e-05 29.7508V39H31.7961ZM7.94907 33.8H15.2357V35.1H7.94907V33.8ZM18.9359 35.1H16.5605V33.8H20.2607L18.9359 35.1ZM7.94907 36.4H15.2357V37.7H7.94907V36.4ZM16.5605 36.4H17.9781C17.8388 36.8257 17.8568 37.286 18.029 37.7H16.5605V36.4ZM19.2102 36.9713C19.2099 36.8755 19.2289 36.7807 19.2662 36.6922C19.3035 36.6037 19.3584 36.5234 19.4275 36.4558L22.0539 33.879C22.1783 33.7573 22.3466 33.689 22.5222 33.6889C22.6978 33.6889 22.8663 33.7571 22.9907 33.8787L23.1045 33.9907C23.166 34.051 23.2148 34.1226 23.2481 34.2014C23.2814 34.2802 23.2986 34.3647 23.2986 34.45C23.2986 34.5353 23.2814 34.6198 23.2481 34.6986C23.2148 34.7774 23.166 34.849 23.1045 34.9093L20.4781 37.4867C20.3742 37.5886 20.2419 37.658 20.0978 37.686C19.9537 37.7141 19.8044 37.6997 19.6687 37.6445C19.533 37.5894 19.417 37.496 19.3354 37.3761C19.2538 37.2563 19.2102 37.1154 19.2102 36.9713ZM25.6454 32.3046C25.9106 32.4317 26.2016 32.4985 26.4968 32.5H29.4537C29.8128 32.4986 30.1646 32.4011 30.4713 32.218V35.1H24.5028C24.5992 34.8473 24.6386 34.5771 24.6182 34.3081C24.5978 34.039 24.5181 33.7775 24.3847 33.5416L25.6454 32.3046ZM22.1341 37.7L23.459 36.4H30.4713V37.7H22.1341ZM30.679 24.2503C30.7791 24.1906 30.8937 24.1586 31.0108 24.1576C31.1569 24.16 31.2983 24.2081 31.4145 24.295C31.5201 24.3719 31.5995 24.4785 31.6421 24.6006C31.6848 24.7227 31.6886 24.8547 31.6532 24.979L30.4923 29.25H30.4713V29.3274L30.0935 30.7173C30.0558 30.8556 29.9727 30.9778 29.8571 31.0651C29.7414 31.1524 29.5996 31.1998 29.4537 31.2H26.4968C26.3212 31.1998 26.1528 31.1313 26.0286 31.0094C25.9044 30.8876 25.8346 30.7223 25.8344 30.55V27.3968C25.8346 27.2833 25.8651 27.1717 25.9227 27.0733C25.9804 26.9748 26.0632 26.8928 26.163 26.8354L30.679 24.2503ZM27.3863 24.6301L25.4954 25.7125C25.1959 25.8847 24.9473 26.1307 24.7744 26.4261C24.6015 26.7215 24.5102 27.0561 24.5095 27.3968V30.55C24.5111 30.8396 24.5792 31.1252 24.7087 31.3855L23.4473 32.6232C23.2051 32.4976 22.9391 32.4225 22.6659 32.4025C22.3927 32.3826 22.1183 32.4183 21.8599 32.5074V32.5H16.5605V30.9076C18.0501 29.9861 19.3005 28.7369 20.2126 27.259C21.1247 25.781 21.6735 24.1149 21.8154 22.3927L26.7232 24.3188C26.9505 24.4091 27.172 24.513 27.3863 24.6301ZM19.7228 25.35H12.0734C11.6943 24.4796 11.4449 23.5602 11.3328 22.62L11.6305 22.8056C12.907 23.5987 14.3868 24.0198 15.8977 24.0199C17.4086 24.0199 18.8884 23.5989 20.165 22.8059L20.4634 22.6201C20.3513 23.5602 20.1019 24.4796 19.7228 25.35ZM19.0388 26.65C18.2445 27.912 17.1711 28.9826 15.8981 29.7826C14.6252 28.9826 13.5518 27.912 12.7574 26.65H19.0388ZM24.5095 14.3C24.6852 14.3002 24.8536 14.3687 24.9777 14.4906C25.1019 14.6124 25.1718 14.7777 25.172 14.95V15.4467C25.1723 15.5675 25.1382 15.6859 25.0735 15.7886C25.0088 15.8913 24.9161 15.9742 24.8058 16.0278L23.8471 16.4982V14.3H24.5095ZM13.9108 2.6V5.85H15.2357V1.95C15.2357 1.77761 15.3055 1.61228 15.4297 1.49039C15.5539 1.36849 15.7224 1.3 15.8981 1.3C16.0738 1.3 16.2423 1.36849 16.3665 1.49039C16.4907 1.61228 16.5605 1.77761 16.5605 1.95V5.85H17.8853V2.6C19.1147 2.60141 20.2933 3.08124 21.1626 3.93422C22.0319 4.78721 22.5208 5.9437 22.5223 7.15V7.8H9.2739V7.15C9.27534 5.9437 9.76433 4.78721 10.6336 3.93422C11.5029 3.08124 12.6815 2.60141 13.9108 2.6ZM8.61148 9.1H23.1847C23.3604 9.1 23.5289 9.16849 23.6531 9.29038C23.7773 9.41228 23.8471 9.57761 23.8471 9.75C23.8471 9.92239 23.7773 10.0877 23.6531 10.2096C23.5289 10.3315 23.3604 10.4 23.1847 10.4H8.61148C8.4358 10.4 8.26731 10.3315 8.14308 10.2096C8.01886 10.0877 7.94907 9.92239 7.94907 9.75C7.94907 9.57761 8.01886 9.41228 8.14308 9.29038C8.26731 9.16849 8.4358 9.1 8.61148 9.1ZM6.62423 15.4467V14.95C6.6244 14.7777 6.69425 14.6124 6.81844 14.4906C6.94263 14.3687 7.11102 14.3002 7.28665 14.3H7.94907V16.4982L6.99037 16.0278C6.88011 15.9742 6.78738 15.8913 6.72266 15.7886C6.65795 15.6859 6.62385 15.5675 6.62423 15.4467ZM9.2739 11.7H22.5223V16.582C22.5249 17.5665 22.2731 18.5355 21.7904 19.3986C21.3076 20.2616 20.6098 20.9905 19.762 21.517L19.4541 21.7086C18.3902 22.3697 17.1569 22.7207 15.8977 22.7206C14.6385 22.7206 13.4052 22.3695 12.3415 21.7083L12.0348 21.5173C11.1869 20.9908 10.4889 20.262 10.006 19.3989C9.52318 18.5357 9.27129 17.5666 9.2739 16.582V11.7ZM5.07233 24.3191L9.9808 22.3927C10.1227 24.1149 10.6715 25.781 11.5836 27.259C12.4957 28.7369 13.7461 29.9861 15.2357 30.9076V32.5H7.94907V31.85C7.94689 30.4183 7.41023 29.0369 6.44056 27.9671C5.47089 26.8972 4.13538 26.213 2.68651 26.0438C3.32064 25.2805 4.14142 24.6872 5.07233 24.3191ZM1.32488 29.7508C1.32549 28.9045 1.51304 28.0684 1.87462 27.3H1.9873C3.21665 27.3014 4.39524 27.7812 5.26452 28.6342C6.1338 29.4872 6.62279 30.6437 6.62423 31.85V37.7H1.32488V29.7508Z" fill="#F85A00"/>
</svg>
