<svg width="19" height="18" viewBox="0 0 19 18" fill="none" xmlns="http://www.w3.org/2000/svg">
<path d="M12.074 16.9996H17.3306C17.7147 16.9996 18.0261 16.6918 18.0272 16.3121L18.0381 11.111L16.645 11.1074L16.6354 15.6212H12.074V16.9996Z" fill="#F85A00"/>
<path d="M11.726 11.7375L12.7114 10.7629L17.823 15.8236L16.8375 16.7981L11.726 11.7375Z" fill="#F85A00"/>
<path d="M0.857554 5.8904H2.25065V1.37843H6.81152V0H1.55419C1.16952 0 0.857554 0.308684 0.857554 0.689304V5.8904Z" fill="#F85A00"/>
<path d="M6.50923 6.56479L7.49414 5.59007L2.04529 0.202148L1.06037 1.17669L6.50923 6.56479Z" fill="#F85A00"/>
<path d="M17.858 5.96434L17.858 0.707732C17.858 0.323605 17.5502 0.01218 17.1705 0.0110949L11.9694 0.00024414L11.9658 1.39334L16.4796 1.40292L16.4796 5.96434L17.858 5.96434Z" fill="#F85A00"/>
<path d="M12.5951 6.31237L11.6206 5.3269L16.6812 0.21534L17.6558 1.2008L12.5951 6.31237Z" fill="#F85A00"/>
<path d="M6.74782 17.1808L6.74782 15.7877L2.23585 15.7877L2.23585 11.2268L0.857422 11.2268L0.857422 16.4841C0.857422 16.8688 1.16611 17.1808 1.54673 17.1808L6.74782 17.1808Z" fill="#F85A00"/>
<path d="M7.4227 11.5281L6.44798 10.5432L1.06006 15.9921L2.0346 16.977L7.4227 11.5281Z" fill="#F85A00"/>
<circle cx="9.33021" cy="8.47254" r="1.95521" fill="#F85A00"/>
</svg>
