<svg width="58" height="21" viewBox="0 0 58 21" fill="none" xmlns="http://www.w3.org/2000/svg">
<path d="M1.10164 0H0V3.83228H1.10164V0Z" fill="white"/>
<path d="M3.79312 0.815046H1.10156V1.10055H3.79312V0.815046Z" fill="white"/>
<path d="M3.79312 1.71339H1.10156V1.99774H3.79312V1.71339Z" fill="white"/>
<path d="M3.79312 2.73289H1.10156V3.01781H3.79312V2.73289Z" fill="white"/>
<path d="M4.8941 0H3.79297V3.83228H4.8941V0Z" fill="white"/>
<path d="M7.58667 0.815046H4.89453V1.10055H7.58667V0.815046Z" fill="white"/>
<path d="M7.58667 1.71339H4.89453V1.99774H7.58667V1.71339Z" fill="white"/>
<path d="M7.58667 2.73289H4.89453V3.01781H7.58667V2.73289Z" fill="white"/>
<path d="M8.68707 0H7.58594V3.83228H8.68707V0Z" fill="white"/>
<path d="M11.3796 0.815046H8.6875V1.10055H11.3796V0.815046Z" fill="white"/>
<path d="M11.3796 1.71339H8.6875V1.99774H11.3796V1.71339Z" fill="white"/>
<path d="M11.3796 2.73289H8.6875V3.01781H11.3796V2.73289Z" fill="white"/>
<path d="M12.4805 0H11.3789V3.83228H12.4805V0Z" fill="white"/>
<path d="M15.1726 0.815046H12.4805V1.10055H15.1726V0.815046Z" fill="white"/>
<path d="M15.1726 1.71339H12.4805V1.99774H15.1726V1.71339Z" fill="white"/>
<path d="M15.1726 2.73289H12.4805V3.01781H15.1726V2.73289Z" fill="white"/>
<path d="M16.275 0H15.1738V3.83228H16.275V0Z" fill="white"/>
<path d="M18.9656 0.815046H16.2734V1.10055H18.9656V0.815046Z" fill="white"/>
<path d="M18.9656 1.71339H16.2734V1.99774H18.9656V1.71339Z" fill="white"/>
<path d="M18.9656 2.73289H16.2734V3.01781H18.9656V2.73289Z" fill="white"/>
<path d="M20.0679 0H18.9668V3.83228H20.0679V0Z" fill="white"/>
<path d="M22.7605 0.815046H20.0684V1.10055H22.7605V0.815046Z" fill="white"/>
<path d="M22.7605 1.71339H20.0684V1.99774H22.7605V1.71339Z" fill="white"/>
<path d="M22.7605 2.73289H20.0684V3.01781H22.7605V2.73289Z" fill="white"/>
<path d="M23.8609 0H22.7598V3.83228H23.8609V0Z" fill="white"/>
<path d="M26.5535 0.815046H23.8613V1.10055H26.5535V0.815046Z" fill="white"/>
<path d="M26.5535 1.71339H23.8613V1.99774H26.5535V1.71339Z" fill="white"/>
<path d="M26.5535 2.73289H23.8613V3.01781H26.5535V2.73289Z" fill="white"/>
<path d="M27.6533 0H26.5527V3.83228H27.6533V0Z" fill="white"/>
<path d="M30.3451 0.815046H27.6523V1.10055H30.3451V0.815046Z" fill="white"/>
<path d="M30.3451 1.71339H27.6523V1.99774H30.3451V1.71339Z" fill="white"/>
<path d="M30.3451 2.73289H27.6523V3.01781H30.3451V2.73289Z" fill="white"/>
<path d="M31.4468 0H30.3457V3.83228H31.4468V0Z" fill="white"/>
<path d="M34.1388 0.815046H31.4473V1.10055H34.1388V0.815046Z" fill="white"/>
<path d="M34.1388 1.71339H31.4473V1.99774H34.1388V1.71339Z" fill="white"/>
<path d="M34.1388 2.73289H31.4473V3.01781H34.1388V2.73289Z" fill="white"/>
<path d="M35.2403 0H34.1387V3.83228H35.2403V0Z" fill="white"/>
<path d="M37.9324 0.815046H35.2402V1.10055H37.9324V0.815046Z" fill="white"/>
<path d="M37.9324 1.71339H35.2402V1.99774H37.9324V1.71339Z" fill="white"/>
<path d="M37.9324 2.73289H35.2402V3.01781H37.9324V2.73289Z" fill="white"/>
<path d="M39.0328 0H37.9316V3.83228H39.0328V0Z" fill="white"/>
<path d="M41.7248 0.815046H39.0332V1.10055H41.7248V0.815046Z" fill="white"/>
<path d="M41.7248 1.71339H39.0332V1.99774H41.7248V1.71339Z" fill="white"/>
<path d="M41.7248 2.73289H39.0332V3.01781H41.7248V2.73289Z" fill="white"/>
<path d="M42.8257 0H41.7246V3.83228H42.8257V0Z" fill="white"/>
<path d="M45.5183 0.815046H42.8262V1.10055H45.5183V0.815046Z" fill="white"/>
<path d="M45.5183 1.71339H42.8262V1.99774H45.5183V1.71339Z" fill="white"/>
<path d="M45.5183 2.73289H42.8262V3.01781H45.5183V2.73289Z" fill="white"/>
<path d="M46.6212 0H45.5195V3.83228H46.6212V0Z" fill="white"/>
<path d="M49.3107 0.815046H46.6191V1.10055H49.3107V0.815046Z" fill="white"/>
<path d="M49.3107 1.71339H46.6191V1.99774H49.3107V1.71339Z" fill="white"/>
<path d="M49.3107 2.73289H46.6191V3.01781H49.3107V2.73289Z" fill="white"/>
<path d="M50.4141 0H49.3125V3.83228H50.4141V0Z" fill="white"/>
<path d="M53.1062 0.815046H50.4141V1.10055H53.1062V0.815046Z" fill="white"/>
<path d="M53.1062 1.71339H50.4141V1.99774H53.1062V1.71339Z" fill="white"/>
<path d="M53.1062 2.73289H50.4141V3.01781H53.1062V2.73289Z" fill="white"/>
<path d="M54.2066 0H53.1055V3.83228H54.2066V0Z" fill="white"/>
<path d="M57.9996 0H56.8984V3.83228H57.9996V0Z" fill="white"/>
<path d="M56.8992 0.815046H54.207V1.10055H56.8992V0.815046Z" fill="white"/>
<path d="M56.8992 1.71339H54.207V1.99774H56.8992V1.71339Z" fill="white"/>
<path d="M56.8992 2.73289H54.207V3.01781H56.8992V2.73289Z" fill="white"/>
<path d="M55.4308 3.83228H2.56976H0V20.3518H2.56976C2.56976 20.3518 15.7846 7.13611 29 7.13611C42.2154 7.13611 55.4307 20.3518 55.4307 20.3518H58V3.83228H55.4308Z" fill="white"/>
</svg>
