<svg width="18" height="17" viewBox="0 0 18 17" fill="none" xmlns="http://www.w3.org/2000/svg">
<g clip-path="url(#clip0)">
<path d="M13.5287 3.58786C14.1802 3.58786 14.7079 3.06363 14.7079 2.41097V1.17922C14.7079 0.525978 14.1808 0 13.5287 0C12.8767 0 12.3501 0.525394 12.3501 1.17922V2.41156C12.3507 3.06363 12.8772 3.58786 13.5287 3.58786Z" fill="#F85A00"/>
<path d="M17.7181 2.03954H15.3444V2.63907C15.3444 3.62856 14.5406 4.43475 13.5493 4.43475C12.5569 4.43475 11.7548 3.62856 11.7548 2.63907V2.03954H6.96499V2.63907C6.96499 3.62856 6.15997 4.43475 5.16931 4.43475C4.17865 4.43475 3.37422 3.62915 3.37422 2.63907V2.03954L0.979004 2.00977V16.9998H2.1769H16.54L17.7362 16.9963L17.7181 2.03954ZM16.5388 15.806H2.1769V6.22985H16.54V15.806H16.5388Z" fill="#F85A00"/>
<path d="M5.15071 3.58786C5.8022 3.58786 6.33051 3.06363 6.33051 2.41097V1.17922C6.33051 0.525394 5.8022 0 5.15071 0C4.49922 0 3.97266 0.525394 3.97266 1.17922V2.41156C3.97266 3.06363 4.49863 3.58786 5.15071 3.58786Z" fill="#F85A00"/>
<path d="M8.85491 7.51489H6.96875V9.17981H8.85491V7.51489Z" fill="#F85A00"/>
<path d="M11.906 7.51489H10.0181V9.17981H11.906V7.51489Z" fill="#F85A00"/>
<path d="M14.7328 7.51489H12.8467V9.17981H14.7328V7.51489Z" fill="#F85A00"/>
<path d="M8.85491 10.2798H6.96875V11.9435H8.85491V10.2798Z" fill="#F85A00"/>
<path d="M11.906 10.2798H10.0181V11.9435H11.906V10.2798Z" fill="#F85A00"/>
<path d="M14.7328 10.2798H12.8467V11.9435H14.7328V10.2798Z" fill="#F85A00"/>
<path d="M8.85491 13.0994H6.96875V14.7631H8.85491V13.0994Z" fill="#F85A00"/>
<path d="M5.85765 10.2798H3.97266V11.9435H5.85765V10.2798Z" fill="#F85A00"/>
<path d="M5.85765 13.0994H3.97266V14.7631H5.85765V13.0994Z" fill="#F85A00"/>
<path d="M11.906 13.0994H10.0181V14.7631H11.906V13.0994Z" fill="#F85A00"/>
<path d="M14.7328 13.0994H12.8467V14.7631H14.7328V13.0994Z" fill="#F85A00"/>
</g>
<defs>
<clipPath id="clip0">
<rect width="17" height="17" fill="white" transform="translate(0.857422)"/>
</clipPath>
</defs>
</svg>
