<svg width="56" height="18" viewBox="0 0 56 18" fill="none" xmlns="http://www.w3.org/2000/svg">
<path d="M42.5316 15.7257C42.5316 16.5521 43.2006 17.2228 44.0286 17.2228C44.8566 17.2228 45.5256 16.5526 45.5256 15.7257C45.5256 14.8983 44.8566 14.2281 44.0286 14.2281C43.2006 14.2281 42.5316 14.8983 42.5316 15.7257ZM48.3177 15.7257C48.3177 16.5521 48.9889 17.2228 49.8147 17.2228C50.6422 17.2228 51.3117 16.5526 51.3117 15.7257C51.3117 14.8983 50.6427 14.2281 49.8147 14.2281C48.9889 14.2287 48.3177 14.8983 48.3177 15.7257ZM4.34823 6.98686V5.10037H1.07185C0.649473 5.10037 0.30744 5.44241 0.30744 5.86535V9.44638L1.06851 9.231C3.16813 8.57093 4.34823 8.5129 4.34823 6.98686ZM15.1393 15.7257C15.1393 15.9874 15.1756 16.2396 15.2442 16.479H8.29362H7.98897H7.83887H7.37186C7.44049 16.2396 7.47675 15.9874 7.47675 15.7257C7.47675 14.2131 6.2509 12.9867 4.73881 12.9867C3.22616 12.9867 2.00087 14.2131 2.00087 15.7257C2.00087 15.9841 2.03602 16.2346 2.10409 16.4717C0.594793 16.3903 0 15.5991 0 15.1393V14.8732V13.5937C0 13.3667 0.145629 13.0564 0.476504 12.7936C0.145629 12.5286 0 12.2195 0 11.9918V5.45747C0 3.70602 1.35363 3.63962 3.76348 2.8819C3.76348 2.8819 8.03918 1.67669 8.29362 1.59913V12.2541V13.3326L9.08928 13.3332V0H55.54V13.3332H51.151C51.9897 13.8002 52.5577 14.6974 52.5577 15.7263V15.7559H52.0778C52.0639 16.9912 51.0567 17.9894 49.8147 17.9894C48.5755 17.9894 47.5694 16.9912 47.5527 15.7559H47.0818L47.0807 15.7263C47.0807 14.6974 47.6487 13.8002 48.4873 13.3332H45.3632C46.2035 13.8002 46.7693 14.6974 46.7693 15.7263V15.7559H46.2917C46.2766 16.9912 45.2695 17.9894 44.0286 17.9894C42.7893 17.9894 41.7811 16.9912 41.7644 15.7559H41.2929V15.7263C41.2929 14.6974 41.8614 13.8002 42.6995 13.3332H40.784V13.9949H22.8153V15.8223H40.7846V16.4846H22.2026V13.3337L21.1207 13.3332V16.4801H20.5153C20.5839 16.2407 20.6202 15.9885 20.6202 15.7268C20.6202 14.6974 20.0516 13.8002 19.2125 13.3332C18.8135 13.1128 18.3604 12.9878 17.8773 12.9878C16.3657 12.9867 15.1393 14.2131 15.1393 15.7257ZM3.24123 15.7257C3.24123 16.5521 3.9119 17.2228 4.73937 17.2228C5.56572 17.2228 6.23639 16.5526 6.23639 15.7257C6.23639 14.8983 5.56628 14.2281 4.73937 14.2281C3.9119 14.2287 3.24123 14.8983 3.24123 15.7257ZM2.4757 15.7257C2.4757 14.477 3.48897 13.4621 4.73937 13.4621C5.98866 13.4621 7.00248 14.4764 7.00248 15.7257C7.00248 16.9756 5.98921 17.9888 4.73937 17.9888C3.48897 17.9888 2.4757 16.9761 2.4757 15.7257ZM16.388 15.7257C16.388 16.5521 17.0587 17.2228 17.8862 17.2228C18.7136 17.2228 19.3838 16.5526 19.3838 15.7257C19.3838 14.8983 18.7136 14.2281 17.8862 14.2281C17.0587 14.2281 16.388 14.8983 16.388 15.7257ZM15.6225 15.7257C15.6225 14.477 16.6358 13.4621 17.8862 13.4621C19.1355 13.4621 20.1498 14.4764 20.1498 15.7257C20.1498 16.9756 19.136 17.9888 17.8862 17.9888C16.6363 17.9888 15.6225 16.9761 15.6225 15.7257Z" fill="white"/>
</svg>
