<svg width="18" height="17" viewBox="0 0 18 17" fill="none" xmlns="http://www.w3.org/2000/svg">
<path d="M2.69076 16.4446H0.857422V17.0001H17.8574V16.4446H7.1352H2.69076Z" fill="#F85A00"/>
<path d="M2.85693 9.16455V16.0579L5.63471 15.2623V9.96011L2.85693 9.16455ZM5.28805 12.6757C5.28137 12.6957 5.26804 12.7134 5.2525 12.729C5.22138 12.7601 5.17916 12.7779 5.13471 12.7779C5.09026 12.7779 5.04804 12.7601 5.01693 12.729C5.00138 12.7134 4.98805 12.6957 4.98138 12.6757C4.97249 12.6557 4.96804 12.6334 4.96804 12.6112C4.96804 12.589 4.97249 12.569 4.98138 12.5468C4.99026 12.5268 5.00138 12.509 5.01693 12.4934C5.0636 12.4468 5.13694 12.4312 5.19915 12.4579C5.21916 12.4668 5.23694 12.4779 5.2525 12.4934C5.26804 12.509 5.27916 12.5268 5.28805 12.5468C5.29693 12.569 5.30138 12.589 5.30138 12.6112C5.30138 12.6334 5.29693 12.6557 5.28805 12.6757Z" fill="#F85A00"/>
<path d="M14.6908 13.7778C14.5987 13.7778 14.5241 13.7031 14.5241 13.6111V10.4444H11.1352C11.0432 10.4444 10.9685 10.3698 10.9685 10.2778V6.88889H7.57964C7.48763 6.88889 7.41298 6.81424 7.41298 6.72222V3.33333H4.24631C4.1543 3.33333 4.07964 3.25868 4.07964 3.16667V0H0.857422V16.1111H2.52409V8.94444C2.52409 8.91931 2.53053 8.89605 2.5405 8.87467C2.54348 8.86823 2.54839 8.86339 2.55216 8.85738C2.56118 8.84309 2.57113 8.83009 2.58393 8.81917C2.58653 8.81693 2.58762 8.81349 2.59039 8.81141C2.59477 8.80809 2.60042 8.80778 2.60506 8.80493C2.61791 8.797 2.63123 8.79104 2.64606 8.78681C2.65542 8.78414 2.6642 8.78216 2.67387 8.78118C2.6797 8.78057 2.68476 8.77778 2.69076 8.77778H7.1352C7.22721 8.77778 7.30187 8.85243 7.30187 8.94444V16.1111H17.8574V13.7778H14.6908Z" fill="#F85A00"/>
</svg>
