<svg width="16" height="18" viewBox="0 0 16 18" fill="none" xmlns="http://www.w3.org/2000/svg">
<path d="M15.9767 6.69272L8.4265 0L0.857422 6.69272C0.857422 6.69272 1.0223 6.69272 1.14599 6.69272H15.6791C15.683 6.69272 15.683 6.69272 15.6868 6.69272C15.8453 6.69272 15.9767 6.69272 15.9767 6.69272ZM8.41254 5.05386C7.7748 5.05386 7.26072 4.53981 7.26072 3.90205C7.26072 3.26428 7.7748 2.75023 8.41254 2.75023C9.0503 2.75023 9.56436 3.26428 9.56436 3.90205C9.56436 4.53981 9.0503 5.05386 8.41254 5.05386Z" fill="#F85A00"/>
<path d="M1.91113 7.27246V17.1673C2.18044 17.1673 2.04256 17.1673 2.20102 17.1673H14.6237C14.7822 17.1673 14.6192 17.1673 14.9136 17.1673V7.27246H1.91113ZM8.12249 11.9416V14.6511H5.41299V11.9416H8.12249ZM5.41299 11.3386V8.62912H8.12249V11.3386H5.41299ZM8.70227 14.6511V11.9416H11.4118V14.6511H8.70227ZM11.4118 11.3386H8.70227V8.62912H11.4118V11.3386Z" fill="#F85A00"/>
</svg>
