<svg width="18" height="17" viewBox="0 0 18 17" fill="none" xmlns="http://www.w3.org/2000/svg">
<path d="M8.25418 17H0.857422V14.6903C0.857422 14.2091 1.08309 13.752 1.45919 13.4392C3.13913 12.1159 4.91937 11.1295 5.87217 10.6483C5.97247 10.8889 7.00049 13.1746 7.62733 14.0166C7.62733 14.0166 8.25418 11.8994 9.2822 12.4768C9.2822 12.4768 7.20108 10.937 6.52409 10.1671V8.65138C6.27335 8.21831 6.09784 7.78524 6.04769 7.37623C5.87217 7.35217 5.62143 7.11157 5.34562 6.22138C5.01966 5.09058 5.32055 4.84999 5.62143 4.84999C5.59636 4.75375 5.57129 4.65751 5.54621 4.56128C5.42084 3.98385 5.39577 3.45454 5.54621 2.94929C5.72173 2.27563 6.09784 1.72226 6.52409 1.31325C6.7999 1.0486 7.10079 0.783946 7.42674 0.591471C7.70256 0.423055 7.97837 0.254639 8.30433 0.158401C8.55506 0.0862228 8.83087 0.0140444 9.10668 0.0140444C9.98427 -0.0581339 10.6362 0.158401 11.1126 0.423055C11.8146 0.808005 12.0905 1.28919 12.0905 1.28919C12.0905 1.28919 13.6952 1.40949 13.1686 4.53722C13.1436 4.63345 13.1185 4.72969 13.0934 4.82593C13.3943 4.82593 13.7203 5.06652 13.3692 6.19732C13.1185 7.08752 12.8677 7.32811 12.6672 7.35217C12.5919 7.76118 12.4415 8.19425 12.1908 8.62732V10.1431C11.5138 10.913 9.43264 12.4528 9.43264 12.4528C10.4607 11.8994 11.0875 13.9926 11.0875 13.9926C11.7144 13.1505 12.7424 10.8648 12.8427 10.6243C13.7704 11.1054 15.5757 12.0919 17.2557 13.4151C17.6568 13.7279 17.8574 14.185 17.8574 14.6662V16.9759H10.4857H8.25418V17Z" fill="#F85A00"/>
</svg>
