<svg width="13" height="17" viewBox="0 0 13 17" fill="none" xmlns="http://www.w3.org/2000/svg">
<path fill-rule="evenodd" clip-rule="evenodd" d="M6.45593 0C3.49549 0 1.0956 2.40511 1.0956 5.37224C1.0956 7.73222 4.89548 12.177 6.45593 14.6114C8.01599 12.177 11.8159 7.73222 11.8159 5.37224C11.8159 2.40511 9.41597 0 6.45593 0ZM11.6157 15.2428H1.29574L0.0540466 16.8662H12.8574L11.6157 15.2428ZM6.45593 3.74206C5.26124 3.74206 4.29268 4.71261 4.29268 5.9098C4.29268 7.10718 5.26124 8.07754 6.45593 8.07754C7.65042 8.07754 8.61879 7.10718 8.61879 5.9098C8.61879 4.71261 7.65042 3.74206 6.45593 3.74206Z" fill="#F85A00"/>
</svg>
