<svg width="15" height="15" viewBox="0 0 15 15" fill="none" xmlns="http://www.w3.org/2000/svg">
<circle cx="7.5" cy="7.5" r="7.5" fill="#F85A00"/>
<path d="M4.22322 6.42867L7.13989 7.77167C7.23789 7.81667 7.36467 7.838 7.49222 7.838C7.61978 7.838 7.74656 7.81667 7.84456 7.77167L10.7612 6.42867C10.9514 6.341 11.1311 6 10.7822 6H4.20261C3.85378 6 4.03345 6.341 4.22322 6.42867ZM10.8495 7.163L7.84456 8.50533C7.71233 8.56467 7.61978 8.57167 7.49222 8.57167C7.36467 8.57167 7.27211 8.56467 7.13989 8.50533C7.00767 8.446 4.36595 7.259 4.15011 7.16267C3.99845 7.09467 4 7.17433 4 7.23567V9.66667C4 9.80667 4.22011 10 4.38889 10H10.6111C10.7799 10 11 9.80667 11 9.66667V7.236C11 7.17467 11.0016 7.095 10.8495 7.163Z" fill="white"/>
</svg>
