<svg width="16" height="39" viewBox="0 0 16 39" fill="none" xmlns="http://www.w3.org/2000/svg">
<path fill-rule="evenodd" clip-rule="evenodd" d="M7.56587 13.9466C7.88712 13.9466 8.14785 14.2067 8.14785 14.5286V18.0204C8.14785 18.3423 7.88712 18.6024 7.56587 18.6024C7.24462 18.6024 6.98389 18.3423 6.98389 18.0204V14.5286C6.98389 14.2067 7.24462 13.9466 7.56587 13.9466ZM8.14785 36.9926L10.0684 35.0721C10.1848 34.9557 10.3012 34.8975 10.4758 34.8975C10.6503 34.8975 10.7667 34.9557 10.8831 35.0721C11.1159 35.3055 11.1159 35.6541 10.8831 35.8875L7.97325 38.7974C7.85686 38.9137 7.71136 38.9714 7.56587 38.9714C7.42038 38.9714 7.27488 38.9137 7.15849 38.7974L4.2486 35.8875C4.01581 35.6541 4.01581 35.3055 4.2486 35.0721C4.365 34.9557 4.48139 34.8975 4.65599 34.8975C4.83058 34.8975 4.94698 34.9557 5.06337 35.0721L6.98389 36.9926V29.0778C6.98389 28.7292 7.21668 28.4958 7.56587 28.4958C7.91506 28.4958 8.14785 28.7292 8.14785 29.0778V36.9926ZM5.43799 31.627C5.7348 31.737 5.89019 32.0681 5.78834 32.3644C5.68417 32.6641 5.35127 32.8276 5.04807 32.7246C4.38752 32.4912 2.84354 31.8458 1.59985 30.2559C0.0884606 28.322 0.00116395 26.2466 0 25.5861V14.5285C0.00116395 13.9541 0.0704192 11.4772 2.0084 9.38385C4.19489 7.02335 7.07975 6.96457 7.5657 6.96283C8.04757 6.96283 10.9493 7.01229 13.1381 9.38385C15.072 11.479 15.132 13.957 15.1314 14.5285V25.5861C15.1343 26.2373 15.0575 28.1858 13.6788 30.0679C12.3909 31.826 10.7142 32.504 10.0845 32.724C9.78303 32.8282 9.44897 32.667 9.34363 32.3655C9.23888 32.0635 9.40125 31.7294 9.70271 31.6241C10.2602 31.4233 11.5813 30.8617 12.6365 29.4871C13.8796 27.8686 13.9634 26.1523 13.9674 25.5861V14.5285C13.9674 14.0635 13.918 11.909 12.2151 10.1148C10.3667 8.16752 7.97657 8.12678 7.5657 8.12678C7.16821 8.12794 4.61624 8.18032 2.75217 10.2946C1.07258 12.1995 1.14067 14.4302 1.16395 14.8847V25.5861C1.16977 26.1553 1.25998 27.8191 2.45303 29.4149C3.52387 30.8477 4.88686 31.4268 5.43799 31.627ZM6.40186 1.16395C6.40186 0.521451 6.92331 0 7.56581 0C8.20831 0 8.72976 0.521451 8.72976 1.16395C8.72976 1.80762 8.20831 2.32791 7.56581 2.32791C6.92331 2.32791 6.40186 1.80762 6.40186 1.16395ZM6.40186 4.65581C6.40186 4.01215 6.92331 3.49186 7.56581 3.49186C8.20831 3.49186 8.72976 4.01215 8.72976 4.65581C8.72976 5.29832 8.20831 5.81977 7.56581 5.81977C6.92331 5.81977 6.40186 5.29832 6.40186 4.65581Z" fill="#293044"/>
</svg>
