<svg width="46" height="46" viewBox="0 0 46 46" fill="none" xmlns="http://www.w3.org/2000/svg">
<path fill-rule="evenodd" clip-rule="evenodd" d="M11.9837 6.35527C11.9837 8.72118 9.77203 10.4845 7.87308 11.4911C6.74684 12.0878 5.51501 12.5525 4.23633 12.9022V14.1547C5.71362 13.7733 7.14002 13.2495 8.43999 12.5606C10.0209 11.7226 11.64 10.4899 12.5213 8.89087C13.0557 10.1323 13.9401 11.2272 14.9495 12.1593C16.4317 13.5276 18.2695 14.6454 20.1548 15.5539V14.204C18.5607 13.3961 17.0231 12.4261 15.7706 11.2698C14.3819 9.98775 13.1942 8.31945 13.1942 6.35527H11.9837H11.9837Z" fill="white"/>
<path fill-rule="evenodd" clip-rule="evenodd" d="M4.23642 19.3395C6.88591 19.1698 9.52889 18.8771 12.14 18.4455C15.235 17.9342 18.3716 17.2184 21.3654 16.2045V9.68422L16.8259 6.35528H29.5364L24.997 9.68422V14.7832C27.0096 13.8724 29.024 12.717 30.5916 11.2698C31.9803 9.98775 33.168 8.31945 33.168 6.35528H34.3785C34.3785 8.72119 36.59 10.4845 38.4892 11.4911C39.5083 12.0311 40.6141 12.4631 41.7628 12.7995V14.0578C40.4148 13.6861 39.1153 13.193 37.9222 12.5606C36.3411 11.7226 34.7222 10.4899 33.8409 8.89088C33.3065 10.1323 32.4222 11.2272 31.4127 12.1593C29.614 13.8197 27.292 15.1112 24.9969 16.1072V46H21.3653V17.4807C18.4269 18.4473 15.3642 19.1398 12.3372 19.6399C9.66106 20.0822 6.95197 20.381 4.23633 20.5525V19.3395L4.23642 19.3395Z" fill="white"/>
<path fill-rule="evenodd" clip-rule="evenodd" d="M41.7623 19.3153C39.2345 19.1427 36.7135 18.8573 34.2218 18.4455C31.5416 18.0028 28.8301 17.4065 26.207 16.5961V17.8616C28.7706 18.6329 31.411 19.2082 34.0243 19.6399C36.5815 20.0623 39.1684 20.3541 41.7623 20.5288V19.3153Z" fill="white"/>
<path fill-rule="evenodd" clip-rule="evenodd" d="M9.26133 0H11.6824V2.42105H13.4982V0H15.9192V2.42105H30.4455V0H32.8667V2.42105H34.6823V0H37.1035V2.42105H38.314V5.14475L8.05078 5.12098V2.42105H9.26133V0Z" fill="white"/>
</svg>
