<svg width="47" height="43" viewBox="0 0 47 43" fill="none" xmlns="http://www.w3.org/2000/svg">
<path d="M20.6935 9.05682C20.4372 9.05682 12.4581 9.05682 12.4581 9.05682C14 9.05682 15.4821 9.30663 16.8704 9.76233H14.2245C12.8362 9.30617 11.3545 9.05682 9.81262 9.05682H0.117188C4.17945 9.05682 13.1237 11.7622 14.1458 21.9949H23.8408C23.7925 21.3534 23.6913 20.7271 23.5593 20.113H26.2047C26.3372 20.7275 26.4384 21.3534 26.4867 21.9949H34.7221C34.1775 14.7599 28.1073 9.05682 20.6935 9.05682ZM16.432 10.7039H19.0365C19.0471 10.7039 19.0563 10.6984 19.0664 10.698C20.2546 11.3285 21.3365 12.1278 22.291 13.0561H19.6456C18.6938 12.1301 17.6156 11.333 16.432 10.7039ZM23.3201 19.1724C22.7607 17.2452 21.8057 15.4851 20.5338 13.9968H23.1793C24.4512 15.4851 25.4062 17.2452 25.966 19.1724H23.3201Z" fill="white"/>
<path d="M14.8985 0.0260792C13.8644 0.0873884 12.8828 0.329422 11.9715 0.70597H10.868C11.949 0.253472 13.0599 0 14.3074 0C14.3074 0 9.25383 0 9.05649 0C4.34654 0 0.473341 3.55593 0 8.11614H5.32589C5.38477 7.55017 5.49655 6.99976 5.65525 6.46948H6.72153C6.56283 6.99976 6.44921 7.54971 6.39033 8.11614H12.7738C13.4794 2.35262 18.2096 0.235171 21.0105 0.0411778C21.0105 0.0411778 14.7274 0.0141834 14.8985 0.0260792ZM7.06791 5.52834H6.00071C6.28775 4.8544 6.65851 4.2253 7.09275 3.64652H8.16225C7.72755 4.22484 7.35587 4.85394 7.06791 5.52834ZM8.97691 2.70538H7.90373C8.29013 2.3151 8.71425 1.96281 9.16551 1.64665H10.2364C9.78467 1.96189 9.36285 2.31648 8.97691 2.70538Z" fill="white"/>
<path d="M3.13281 9.06139C3.19215 9.06048 3.25149 9.05682 3.31129 9.05682H3.13419L3.13281 9.06139Z" fill="white"/>
<path d="M11.6965 9.07741C11.9495 9.06368 12.2038 9.05728 12.4601 9.05728H11.6914L11.6965 9.07741Z" fill="white"/>
<path d="M46.0017 42.4616C45.9704 32.1035 41.8373 23.6502 36.6158 22.9836L36.5947 22.936H24.7317C25.1926 23.1854 25.4415 24.5342 25.574 26.6608H22.2615C22.4 24.4298 22.6622 23.0614 23.153 22.936H11.756L11.7491 22.9516C6.36344 23.2764 2.04541 31.8734 2.01367 42.4616H22.1304C22.1318 40.0458 22.1203 37.7353 22.1157 35.6H25.712C25.7051 37.7362 25.6917 40.0472 25.6931 42.4616H46.0017ZM22.1139 34.6589C22.1116 31.9192 22.1286 29.5153 22.2118 27.6014H25.6223C25.7055 29.5176 25.7193 31.9228 25.7143 34.6589H22.1139Z" fill="white"/>
</svg>
