<svg width="30" height="30" viewBox="0 0 30 30" fill="none" xmlns="http://www.w3.org/2000/svg">
<path d="M7.27819 14.6924L10.9073 16.1741L12.312 21.1155C12.4019 21.432 12.7557 21.549 12.9905 21.339L15.0134 19.5351C15.2255 19.3461 15.5275 19.3366 15.7491 19.5126L19.3978 22.4102C19.649 22.6099 20.0049 22.4594 20.0679 22.1273L22.7407 8.0639C22.8095 7.70119 22.4837 7.39861 22.1679 7.53219L7.27394 13.8171C6.90639 13.9721 6.90959 14.5414 7.27819 14.6924ZM12.0856 15.3854L19.1783 10.607C19.3057 10.5214 19.4369 10.7099 19.3274 10.821L13.4739 16.7727C13.2682 16.9822 13.1355 17.2626 13.0979 17.5669L12.8985 19.1833C12.8721 19.3991 12.5949 19.4205 12.5405 19.2116L11.7736 16.2642C11.6858 15.928 11.8138 15.5689 12.0856 15.3854Z" fill="#293044"/>
</svg>
