<svg width="30" height="30" viewBox="0 0 30 30" fill="none" xmlns="http://www.w3.org/2000/svg">
<path d="M22.1647 11.177L22.1602 11.1591C21.7983 9.69613 20.1669 8.12636 18.6686 7.79978L18.6518 7.79629C16.2284 7.33402 13.7713 7.33402 11.3485 7.79629L11.3311 7.79978C9.83339 8.12636 8.20188 9.69624 7.83954 11.1591L7.83552 11.177C7.38816 13.22 7.38816 15.2919 7.83552 17.3349L7.83954 17.3528C8.18648 18.7533 9.69642 20.251 11.1387 20.6628V22.2959C11.1387 22.887 11.859 23.1773 12.2686 22.7507L13.9232 21.0309C14.2821 21.0509 14.6412 21.0621 15.0001 21.0621C16.2199 21.0621 17.4403 20.9467 18.6517 20.7156L18.6686 20.7122C20.1668 20.3856 21.7983 18.8157 22.1602 17.3528L22.1646 17.335C22.612 15.2919 22.612 13.2201 22.1647 11.177ZM20.8552 17.0387C20.6136 17.9931 19.3749 19.1797 18.3907 19.3989C17.1022 19.644 15.8035 19.7487 14.506 19.7127C14.4802 19.712 14.4554 19.7221 14.4375 19.7406C14.2533 19.9295 13.2294 20.9807 13.2294 20.9807L11.9445 22.2995C11.8505 22.3975 11.6855 22.3308 11.6855 22.1956V19.4903C11.6855 19.4456 11.6536 19.4077 11.6096 19.399C11.6094 19.3989 11.6092 19.3989 11.6089 19.3989C10.6247 19.1796 9.3864 17.9931 9.14437 17.0386C8.74171 15.192 8.74171 13.3199 9.14437 11.4732C9.3864 10.5188 10.6247 9.33226 11.6089 9.11302C13.8592 8.68503 16.1409 8.68503 18.3907 9.11302C19.3754 9.33226 20.6137 10.5188 20.8553 11.4732C21.2584 13.32 21.2584 15.192 20.8552 17.0387Z" fill="#293044"/>
<path d="M17.1406 18.2872C16.9893 18.2412 16.8451 18.2104 16.7111 18.1549C15.3234 17.5791 14.0463 16.8363 13.0347 15.6978C12.4594 15.0503 12.0092 14.3194 11.6286 13.5458C11.4481 13.179 11.296 12.7978 11.1409 12.419C10.9996 12.0736 11.2078 11.7169 11.427 11.4566C11.6328 11.2123 11.8975 11.0255 12.1843 10.8876C12.4081 10.7801 12.6288 10.8421 12.7923 11.0318C13.1456 11.4419 13.4702 11.873 13.7329 12.3484C13.8945 12.6408 13.8502 12.9982 13.5573 13.1972C13.486 13.2455 13.4212 13.3023 13.3549 13.3569C13.2967 13.4048 13.242 13.4532 13.2021 13.518C13.1293 13.6365 13.1258 13.7765 13.1726 13.9054C13.5338 14.8979 14.1426 15.6698 15.1417 16.0856C15.3016 16.1521 15.4621 16.2295 15.6463 16.208C15.9547 16.172 16.0546 15.8336 16.2708 15.6569C16.482 15.4842 16.752 15.4819 16.9796 15.6259C17.2072 15.77 17.4278 15.9246 17.6472 16.0809C17.8625 16.2343 18.0768 16.3843 18.2754 16.5593C18.4663 16.7275 18.5321 16.9481 18.4245 17.1762C18.2277 17.5942 17.9413 17.9419 17.5281 18.1639C17.4115 18.2264 17.2721 18.2467 17.1406 18.2872C16.9893 18.2412 17.2721 18.2467 17.1406 18.2872Z" fill="#293044"/>
<path d="M15.0039 10.4099C16.819 10.4608 18.3098 11.6654 18.6293 13.4599C18.6838 13.7657 18.7031 14.0782 18.7274 14.3886C18.7376 14.5191 18.6636 14.6431 18.5228 14.6449C18.3773 14.6466 18.3119 14.5248 18.3023 14.3944C18.2837 14.1361 18.2707 13.8767 18.2351 13.6206C18.0472 12.2684 16.969 11.1498 15.6232 10.9097C15.4206 10.8736 15.2134 10.8641 15.0082 10.8426C14.8785 10.829 14.7087 10.8212 14.68 10.6599C14.6559 10.5248 14.77 10.4171 14.8987 10.4102C14.9336 10.4082 14.9687 10.4098 15.0039 10.4099C16.8191 10.4608 14.9687 10.4098 15.0039 10.4099Z" fill="#293044"/>
<path d="M17.7621 13.9858C17.759 14.0085 17.7575 14.0618 17.7442 14.112C17.696 14.2942 17.4197 14.317 17.3561 14.1331C17.3372 14.0786 17.3344 14.0165 17.3343 13.9578C17.3337 13.5734 17.2502 13.1893 17.0563 12.8548C16.857 12.5109 16.5525 12.222 16.1954 12.0471C15.9794 11.9414 15.746 11.8756 15.5093 11.8365C15.4059 11.8194 15.3013 11.8091 15.1974 11.7946C15.0714 11.777 15.0041 11.6968 15.0101 11.5727C15.0157 11.4564 15.1007 11.3726 15.2275 11.3799C15.644 11.4035 16.0464 11.4936 16.4168 11.6897C17.1698 12.0885 17.6 12.718 17.7256 13.5586C17.7313 13.5967 17.7404 13.6344 17.7433 13.6726C17.7504 13.7669 17.7549 13.8613 17.7621 13.9858C17.759 14.0084 17.7549 13.8613 17.7621 13.9858Z" fill="#293044"/>
<path d="M16.6332 13.9418C16.4814 13.9446 16.4001 13.8605 16.3844 13.7213C16.3735 13.6243 16.3649 13.5259 16.3417 13.4314C16.2961 13.2454 16.1972 13.073 16.0407 12.959C15.9669 12.9052 15.8831 12.866 15.7955 12.8406C15.6841 12.8084 15.5683 12.8173 15.4573 12.7901C15.3366 12.7605 15.2699 12.6627 15.2888 12.5496C15.3061 12.4465 15.4063 12.3661 15.5189 12.3743C16.2227 12.4251 16.7256 12.7889 16.7974 13.6174C16.8025 13.6758 16.8085 13.7376 16.7955 13.7936C16.7732 13.8892 16.7023 13.9372 16.6332 13.9418C16.4813 13.9445 16.7023 13.9372 16.6332 13.9418Z" fill="#293044"/>
<path d="M17.1406 18.2872C17.2721 18.2466 16.9893 18.2412 17.1406 18.2872V18.2872Z" fill="#293044"/>
<path d="M15.0068 10.4103C15.0056 10.4103 15.0045 10.41 15.0033 10.41C15.0022 10.4099 15.0036 10.41 15.0068 10.4103Z" fill="#293044"/>
<path d="M15.0039 10.4098C15.0054 10.4098 15.0069 10.4099 15.0085 10.4099C15.1092 10.4135 16.7475 10.4587 15.0039 10.4098Z" fill="#293044"/>
<path d="M17.7623 13.9856C17.7551 13.8611 17.7593 14.0082 17.7623 13.9856V13.9856Z" fill="#293044"/>
<path d="M16.6338 13.9436C16.6363 13.9433 16.6386 13.9407 16.641 13.9402C16.6344 13.9402 16.6242 13.9405 16.6138 13.9413C16.6205 13.9416 16.6267 13.9437 16.6338 13.9436Z" fill="#293044"/>
<path d="M16.6331 13.9414C16.6263 13.9416 16.6203 13.9396 16.6137 13.9392C16.5809 13.941 16.5469 13.9445 16.6331 13.9414Z" fill="#293044"/>
<path d="M16.6405 13.9402C16.638 13.9407 16.6357 13.9432 16.6333 13.9436C16.6517 13.9411 16.6501 13.9402 16.6405 13.9402Z" fill="#293044"/>
</svg>
