<svg width="34" height="34" viewBox="0 0 34 34" fill="none" xmlns="http://www.w3.org/2000/svg">
<path fill-rule="evenodd" clip-rule="evenodd" d="M26.6674 0.938477V33.7077H0.71875V0.938477H26.6674ZM3.63962 27.7731H5.14616V28.8126H3.63962V27.7731ZM6.25301 27.7731H23.7461V28.8126H6.25301V27.7731ZM3.63962 25.5284H5.14616V26.5684H3.63962V25.5284ZM6.25301 25.5284H23.7461V26.5684H6.25301V25.5284ZM3.63962 23.2841H5.14616V24.3236H3.63962V23.2841ZM6.25301 23.2841H23.7461V24.3236H6.25301V23.2841ZM3.63962 21.0394H5.14616V22.0793H3.63962V21.0394ZM6.25301 21.0394H23.7461V22.0793H6.25301V21.0394ZM3.63962 18.7951H5.14616V19.8346H3.63962V18.7951ZM6.25301 18.7951H23.7461V19.8346H6.25301V18.7951ZM3.63962 16.5503H5.14616V17.5903H3.63962V16.5503ZM6.25301 16.5503H23.7461V17.5903H6.25301V16.5503ZM3.63962 14.3061H5.14616V15.3456H3.63962V14.3061ZM6.25301 14.3061H23.7461V15.3456H6.25301V14.3061ZM3.63962 12.0613H5.14616V13.1013H3.63962V12.0613ZM6.25301 12.0613H23.7461V13.1013H6.25301V12.0613ZM32.9545 28.0784V29.5495C32.9545 30.2332 31.9085 30.2332 31.9085 29.5495V28.084C31.277 28.0702 30.7708 27.556 30.7708 26.9273V10.7827H30.0954V17.3542C30.0954 18.0379 29.0498 18.0379 29.0498 17.3542V9.74267H30.7708V5.2143C30.7708 4.5782 31.2948 4.05713 31.9346 4.05713H32.8362C33.4729 4.05713 34 4.5808 34 5.2143C34 12.4518 34 19.6898 34 26.9273C34 27.5188 33.5446 28.0178 32.9545 28.0784ZM32.954 10.7827H31.8167V26.9273C31.8167 26.9921 31.8694 27.0445 31.9346 27.0445H32.8362C32.901 27.0445 32.954 26.9921 32.954 26.9273V10.7827ZM31.8167 9.74267H32.954V5.2143C32.954 5.14944 32.901 5.09668 32.8362 5.09668H31.9346C31.8694 5.09668 31.8167 5.14944 31.8167 5.2143V9.74267ZM3.05554 7.14379H16.1829V8.18334H3.05554V7.14379ZM3.05554 5.34014H10.4338V6.38012H3.05554V5.34014ZM3.05554 3.53649H12.6167V4.57648H3.05554V3.53649ZM1.76428 1.97803H25.6214V32.6682H1.76428V1.97803Z" fill="#F85A00"/>
</svg>
