<svg width="160" height="34" viewBox="0 0 160 34" fill="none" xmlns="http://www.w3.org/2000/svg">
<path fill-rule="evenodd" clip-rule="evenodd" d="M44.5435 16.2849L22.2717 7.67781V0L44.5435 10.2828V16.2849Z" fill="#757985"/>
<path fill-rule="evenodd" clip-rule="evenodd" d="M22.2717 12.0498L44.5435 19.8038V25.0442L22.2717 21.8908V12.0498Z" fill="#757985"/>
<path fill-rule="evenodd" clip-rule="evenodd" d="M22.2717 25.2734L44.5435 28.7467V33.3321H22.2717V25.2734Z" fill="#757985"/>
<path fill-rule="evenodd" clip-rule="evenodd" d="M18.1129 21.9065L0 24.9533V20.6726L18.1129 12.2788V21.9065Z" fill="#757985"/>
<path fill-rule="evenodd" clip-rule="evenodd" d="M0 28.7618L18.1129 25.6084V33.3319H0V28.7618Z" fill="#757985"/>
<path fill-rule="evenodd" clip-rule="evenodd" d="M18.1129 7.99765L0 17.016V12.6439L18.1129 0.853027V7.99765Z" fill="#757985"/>
<path fill-rule="evenodd" clip-rule="evenodd" d="M63.5246 30.9398L63.9969 31.0769C63.9055 31.5035 63.7227 31.8386 63.4637 32.0671C63.2047 32.2956 62.8848 32.4175 62.5192 32.4175C62.1384 32.4175 61.8185 32.3261 61.5747 32.1433C61.331 31.9757 61.1482 31.7168 61.0263 31.3816C60.9044 31.0465 60.8435 30.6961 60.8435 30.3152C60.8435 29.8887 60.9044 29.5231 61.0568 29.2184C61.1939 28.9137 61.3919 28.67 61.6509 28.5177C61.9251 28.3501 62.2145 28.2739 62.5192 28.2739C62.8848 28.2739 63.1895 28.3653 63.4332 28.5786C63.677 28.7766 63.8446 29.0661 63.936 29.4317L63.4789 29.5536C63.3875 29.2641 63.2657 29.0508 63.1133 28.929C62.961 28.7919 62.763 28.7157 62.5192 28.7157C62.245 28.7157 62.0165 28.7919 61.8337 28.9442C61.6509 29.0965 61.5138 29.2946 61.4376 29.5383C61.3615 29.7821 61.331 30.041 61.331 30.3152C61.331 30.6504 61.3767 30.9398 61.4529 31.1988C61.5443 31.4578 61.6814 31.6406 61.8794 31.7777C62.0622 31.8996 62.2602 31.9605 62.4735 31.9605C62.7477 31.9605 62.961 31.8691 63.1438 31.7015C63.3266 31.5339 63.4637 31.275 63.5246 30.9398ZM68.6127 32.3413V28.8071H67.4245V28.3349H70.258V28.8071H69.085V32.3413H68.6127ZM74.0359 32.3413V28.3349H75.3765C75.6202 28.3349 75.803 28.3501 75.9249 28.3806C76.1077 28.411 76.2448 28.472 76.3667 28.5634C76.4886 28.6548 76.58 28.7766 76.6561 28.9442C76.7323 29.1118 76.7628 29.2946 76.7628 29.4926C76.7628 29.8278 76.6714 30.1172 76.4733 30.3609C76.2753 30.5895 75.9249 30.7113 75.4222 30.7113H74.5082V32.3413H74.0359ZM74.5082 30.2391H75.4222C75.7421 30.2391 75.9554 30.1781 76.0772 30.0563C76.2144 29.9192 76.2753 29.7364 76.2753 29.5079C76.2753 29.3403 76.2448 29.2032 76.1687 29.0813C76.0925 28.9594 75.9858 28.8833 75.864 28.8376C75.7878 28.8223 75.6355 28.8071 75.4222 28.8071H74.5082V30.2391ZM80.3884 30.3914C80.3884 29.7364 80.556 29.2032 80.8606 28.8376C81.1806 28.4567 81.5919 28.2739 82.1098 28.2739C82.4297 28.2739 82.7344 28.3653 82.9934 28.5329C83.2676 28.7157 83.4656 28.9594 83.6027 29.2794C83.7398 29.584 83.816 29.9496 83.816 30.3457C83.816 30.757 83.7398 31.1226 83.5875 31.4425C83.4504 31.7625 83.2371 32.0062 82.9781 32.1585C82.7039 32.3261 82.4145 32.4175 82.0946 32.4175C81.7594 32.4175 81.47 32.3261 81.1958 32.1433C80.9368 31.9605 80.7235 31.7015 80.5864 31.3968C80.4493 31.0769 80.3884 30.7418 80.3884 30.3914ZM80.8759 30.4066C80.8759 30.8789 80.9977 31.2597 81.2263 31.5492C81.4548 31.8234 81.7442 31.9605 82.0946 31.9605C82.4602 31.9605 82.7496 31.8234 82.9781 31.5339C83.2066 31.2597 83.3285 30.8637 83.3285 30.3457C83.3285 30.0258 83.2676 29.7364 83.1762 29.4926C83.0848 29.2489 82.9324 29.0661 82.7496 28.929C82.5516 28.7919 82.3383 28.7309 82.1098 28.7309C81.7747 28.7309 81.4852 28.8528 81.2415 29.1118C80.9977 29.3708 80.8759 29.7973 80.8759 30.4066ZM87.7158 28.3349H88.1424V31.5187L90.0466 28.3349H90.5188V32.3413H90.0923V29.1727L88.1881 32.3413H87.7158V28.3349ZM94.571 32.3413V28.3349H95.2718L96.1249 31.1683C96.201 31.4425 96.262 31.6406 96.2924 31.7625C96.3381 31.6253 96.3991 31.4121 96.4905 31.1226L97.3436 28.3349H97.9834V32.3413H97.5264V28.9899L96.4752 32.3413H96.0487L95.0128 28.929V32.3413H94.571ZM106.21 28.3349H108.54V28.8071H106.682V30.041H107.535C107.855 30.041 108.099 30.0715 108.297 30.1477C108.479 30.2086 108.632 30.3457 108.738 30.5285C108.86 30.7113 108.906 30.9246 108.906 31.1836C108.906 31.3816 108.875 31.5644 108.784 31.7472C108.708 31.93 108.586 32.0671 108.434 32.1738C108.266 32.2956 107.992 32.3413 107.611 32.3413H106.21V28.3349ZM106.682 31.8843H107.626C107.885 31.8843 108.083 31.8386 108.205 31.7168C108.327 31.5949 108.403 31.4273 108.403 31.1988C108.403 31.0312 108.358 30.8941 108.281 30.7723C108.22 30.6656 108.114 30.5895 107.977 30.559C107.855 30.5285 107.626 30.4981 107.322 30.4981H106.682V31.8843ZM112.273 28.3349H112.745L113.918 30.8027L114.939 28.3349H115.411L114.07 31.4578C113.903 31.8386 113.766 32.0976 113.659 32.2195C113.552 32.3413 113.385 32.4023 113.187 32.4023C113.065 32.4023 112.928 32.3718 112.745 32.3109V31.8539C112.867 31.93 113.004 31.9757 113.141 31.9757C113.263 31.9757 113.354 31.93 113.446 31.8539C113.522 31.7625 113.613 31.5796 113.72 31.2902L112.273 28.3349ZM119.189 28.3349H121.367V31.8691H121.687V33.2858H121.276V32.3413H118.899V33.2858H118.473V31.8691H118.747C119.052 31.3816 119.189 30.4066 119.189 28.929V28.3349ZM120.895 28.8071H119.646V29.0051C119.646 29.3555 119.615 29.8278 119.554 30.4066C119.509 31.0008 119.402 31.4882 119.234 31.8691H120.895V28.8071ZM125.221 28.3349H125.694L126.867 30.8027L127.887 28.3349H128.359L127.019 31.4578C126.851 31.8386 126.714 32.0976 126.608 32.2195C126.501 32.3413 126.349 32.4023 126.151 32.4023C126.029 32.4023 125.876 32.3718 125.694 32.3109V31.8539C125.815 31.93 125.953 31.9757 126.105 31.9757C126.211 31.9757 126.318 31.93 126.394 31.8539C126.486 31.7625 126.577 31.5796 126.669 31.2902L125.221 28.3349ZM132.046 28.3349H132.533V31.8691H133.706V28.3349H134.194V31.8691H135.367V28.3349H135.854V31.8691H136.174V33.4534H135.748V32.3413H132.046V28.3349ZM140.013 32.3413V28.3349H142.603V28.8071H140.501V30.041H142.466V30.5133H140.501V31.8691H142.694V32.3413H140.013ZM146.64 32.3413V28.3349H149.214V28.8071H147.112V30.041H149.077V30.5133H147.112V31.8691H149.306V32.3413H146.64Z" fill="#757985"/>
<path fill-rule="evenodd" clip-rule="evenodd" d="M60.7064 10.0239H51.8404C51.1853 10.0239 50.7892 10.2829 50.576 10.4809C50.1951 10.877 50.1494 11.395 50.1494 11.8215V20.6571C50.1494 21.0075 50.1799 21.4492 50.4846 21.7996C50.7131 22.0586 51.0939 22.2871 51.7337 22.2871H58.528C59.7619 22.2871 60.4017 21.7844 60.6759 21.4797C61.0263 21.0836 61.3614 20.3067 61.3614 18.7376C61.3614 17.5951 61.1786 16.6658 60.7064 16.0717C60.0666 15.2643 59.1069 15.1577 58.4823 15.1577H52.5106V12.6289C52.5106 12.4613 52.5106 12.1719 52.6934 12.0043C52.8458 11.8824 53.12 11.8672 53.3485 11.8672H60.7064V10.0239ZM52.5106 17.001H57.294C57.6901 17.001 58.1776 17.0162 58.528 17.3361C58.8936 17.6865 58.9088 18.2044 58.9088 18.6615C58.9088 19.0271 58.9393 19.7126 58.5432 20.0934C58.1776 20.4438 57.7358 20.4438 57.294 20.4438H53.5008C53.2266 20.4438 52.7849 20.4743 52.602 20.2305C52.5716 20.1696 52.5106 20.063 52.5106 19.545V17.001Z" fill="#757985"/>
<path fill-rule="evenodd" clip-rule="evenodd" d="M61.8948 22.2873H64.0427L66.9676 15.1274C67.0133 15.036 67.059 14.8685 67.1504 14.8685C67.2418 14.8685 67.2875 15.036 67.3332 15.1274L70.2581 22.2873H72.4061L68.5519 13.6802C68.2929 13.1318 67.7293 12.9033 67.1504 12.9033C66.5715 12.9033 66.0079 13.1318 65.7489 13.6802L61.8948 22.2873Z" fill="#757985"/>
<path fill-rule="evenodd" clip-rule="evenodd" d="M77.2197 12.9033C76.0924 12.9033 74.4167 12.9338 73.3808 13.8783C72.284 14.8837 72.1621 16.6356 72.1621 17.6867C72.1621 18.6312 72.2535 20.3831 73.3808 21.4037C74.4167 22.333 76.0924 22.3939 77.2197 22.3939C78.3165 22.3939 80.038 22.333 81.0586 21.4037C81.7594 20.7487 82.2773 19.5757 82.2773 17.6105C82.2773 16.6356 82.1554 14.8837 81.0586 13.8783C80.0075 12.9338 78.347 12.9033 77.2197 12.9033ZM74.3253 17.6715C74.3253 17.0774 74.3253 15.8739 74.9194 15.2188C75.5135 14.5486 76.5342 14.4724 77.2197 14.4724C77.9662 14.4724 78.8802 14.5486 79.4895 15.2188C80.1598 15.9348 80.0989 16.986 80.0989 17.6715C80.0989 18.4789 80.0989 19.3624 79.4743 20.0479C78.8497 20.7335 78.0119 20.8249 77.2197 20.8249C76.458 20.8249 75.544 20.7335 74.9347 20.0479C74.3405 19.3777 74.3253 18.4332 74.3253 17.6715Z" fill="#757985"/>
<path fill-rule="evenodd" clip-rule="evenodd" d="M85.5526 22.2871V13.0098H83.4656V22.2871H85.5526ZM92.4992 22.2871L88.447 18.1588C88.3099 18.0217 88.1119 17.7018 88.1119 17.5037C88.1119 17.2143 88.3861 16.9096 88.5536 16.7573L92.164 13.0098H89.6657L86.6342 16.3003C86.36 16.6049 85.9791 17.0315 85.9791 17.5037C85.9791 17.976 86.2991 18.372 86.5123 18.6005L89.9704 22.2871H92.4992Z" fill="#757985"/>
<path fill-rule="evenodd" clip-rule="evenodd" d="M105.874 12.7806C105.92 12.6435 106.042 12.3693 106.179 12.3693C106.24 12.3693 106.392 12.415 106.392 12.7502L106.316 22.2865H108.693V11.501C108.693 10.3737 107.824 9.88623 106.651 9.88623C105.737 9.88623 104.991 10.0995 104.458 11.4705L101.198 19.6511C101.091 19.91 100.969 20.0928 100.863 20.0928C100.756 20.0928 100.634 19.91 100.527 19.6511L97.2674 11.4705C96.7342 10.0995 95.9877 9.88623 95.0737 9.88623C94.7081 9.88623 93.0476 9.90146 93.0476 11.501V22.2865H95.4088L95.3479 12.7502C95.3479 12.6892 95.3479 12.3693 95.5459 12.3693C95.6526 12.3693 95.8049 12.6435 95.8506 12.7806L99.0649 20.9612C99.5219 22.1189 99.8876 22.4236 100.863 22.4236C101.898 22.4236 102.234 22.058 102.66 20.9612L105.874 12.7806Z" fill="#757985"/>
<path fill-rule="evenodd" clip-rule="evenodd" d="M115.289 12.9033C114.162 12.9033 112.486 12.9338 111.45 13.8783C110.353 14.8837 110.231 16.6356 110.231 17.6867C110.231 18.6312 110.323 20.3831 111.45 21.4037C112.486 22.333 114.162 22.3939 115.289 22.3939C116.386 22.3939 118.107 22.333 119.128 21.4037C119.829 20.7487 120.347 19.5757 120.347 17.6105C120.347 16.6356 120.225 14.8837 119.128 13.8783C118.092 12.9338 116.416 12.9033 115.289 12.9033ZM112.395 17.6715C112.395 17.0774 112.395 15.8739 112.989 15.2188C113.583 14.5486 114.604 14.4724 115.289 14.4724C116.036 14.4724 116.95 14.5486 117.559 15.2188C118.229 15.9348 118.183 16.986 118.183 17.6715C118.183 18.4789 118.183 19.3624 117.544 20.0479C116.919 20.7335 116.081 20.8249 115.289 20.8249C114.527 20.8249 113.613 20.7335 113.004 20.0479C112.41 19.3777 112.395 18.4332 112.395 17.6715Z" fill="#757985"/>
<path fill-rule="evenodd" clip-rule="evenodd" d="M121.489 20.7182H120.636V22.2873H131.345V20.7182H130.507L127.522 13.8173C127.324 13.3603 127.004 12.9033 125.998 12.9033C125.023 12.9033 124.673 13.2994 124.46 13.8173L121.489 20.7182ZM125.8 14.9446C125.831 14.8532 125.922 14.7009 125.998 14.7009C126.105 14.7009 126.135 14.8685 126.181 14.9446L128.451 20.7182H123.546L125.8 14.9446Z" fill="#757985"/>
<path fill-rule="evenodd" clip-rule="evenodd" d="M141.582 13.0098H139.45L136.235 20.0478L133.204 13.0098H130.98L135.215 22.2566L133.768 25.2729H135.9L141.582 13.0098Z" fill="#757985"/>
<path fill-rule="evenodd" clip-rule="evenodd" d="M140.15 22.2873H142.314L145.238 15.1274C145.269 15.036 145.315 14.8685 145.406 14.8685C145.497 14.8685 145.558 15.036 145.589 15.1274L148.514 22.2873H150.662L146.808 13.6802C146.564 13.1318 145.985 12.9033 145.406 12.9033C144.842 12.9033 144.264 13.1318 144.005 13.6802L140.15 22.2873Z" fill="#757985"/>
<path fill-rule="evenodd" clip-rule="evenodd" d="M151.21 13.0098V20.8704C151.21 21.236 151.21 21.6321 151.561 21.952C151.911 22.2719 152.307 22.2871 152.627 22.2871H157.456C158.035 22.2871 158.736 22.2719 159.284 21.7996C159.954 21.2055 160 20.1239 160 19.4993C160 18.7681 159.939 17.8693 159.375 17.2295C158.842 16.6506 158.187 16.5288 157.593 16.5288H153.312V13.0098H151.21ZM153.312 18.0978H156.71C156.953 18.0978 157.319 18.1283 157.578 18.4025C157.837 18.6767 157.822 19.1185 157.822 19.3775C157.822 19.7126 157.806 20.1544 157.578 20.4134C157.319 20.7028 156.953 20.718 156.649 20.718H153.891C153.739 20.718 153.556 20.7028 153.434 20.5809C153.282 20.4286 153.312 20.2001 153.312 20.063V18.0978Z" fill="#757985"/>
</svg>
